<svg id="svg" version="1.1" xmlns="http://www.w3.org/2000/svg" xmlns:xlink="http://www.w3.org/1999/xlink" width="400" height="296.17021276595744" viewBox="0, 0, 400,296.17021276595744"><g id="svgg"><path id="path0" d="M0.000 148.148 L 0.000 296.296 200.000 296.296 L 400.000 296.296 400.000 148.148 L 400.000 0.000 200.000 0.000 L 0.000 0.000 0.000 148.148 M219.389 41.283 C 219.686 41.500,220.211 42.266,220.557 42.986 C 221.313 44.561,222.154 45.027,224.245 45.033 C 228.629 45.045,228.792 49.663,224.434 50.372 C 221.667 50.822,221.790 50.404,221.690 59.688 L 221.603 67.801 222.505 68.828 C 223.100 69.505,223.851 69.967,224.712 70.184 C 229.329 71.347,228.268 75.424,223.358 75.386 C 219.388 75.356,216.954 73.881,215.953 70.897 C 215.329 69.039,215.234 42.531,215.847 41.595 C 216.383 40.778,218.449 40.596,219.389 41.283 M206.496 46.693 C 208.341 48.246,207.602 50.099,204.497 51.703 C 199.814 54.122,199.711 54.523,201.185 64.593 C 202.679 74.802,202.318 77.037,199.174 77.037 C 196.586 77.037,195.888 75.551,195.118 68.406 C 194.848 65.901,194.236 61.234,193.758 58.034 C 192.616 50.391,192.607 48.562,193.704 47.697 C 194.752 46.871,196.373 47.045,197.652 48.122 C 198.156 48.546,198.724 48.803,198.914 48.694 C 199.104 48.585,199.645 48.228,200.116 47.901 C 202.785 46.051,205.191 45.595,206.496 46.693 M253.597 48.721 C 259.736 50.308,261.778 52.938,261.778 59.259 C 261.778 66.821,259.971 67.937,251.407 65.668 C 242.434 63.291,239.056 64.322,241.852 68.586 C 243.786 71.535,246.491 72.738,253.883 73.935 C 257.418 74.507,258.566 76.171,256.894 78.296 C 255.427 80.161,245.534 78.735,240.959 75.999 C 230.938 70.006,233.160 51.668,244.296 48.461 C 245.274 48.179,246.207 47.895,246.370 47.830 C 247.042 47.561,250.997 48.049,253.597 48.721 M178.203 53.459 C 181.377 55.012,183.223 59.006,187.690 73.982 C 188.806 77.724,187.923 79.111,184.424 79.111 C 183.020 79.111,182.458 79.285,180.998 80.172 C 172.529 85.316,165.485 84.795,162.224 78.782 C 158.698 72.279,162.372 66.423,171.596 63.845 C 175.809 62.668,176.824 61.732,175.876 59.898 C 174.521 57.278,170.942 57.413,164.516 60.327 C 159.925 62.409,158.538 62.123,158.523 59.095 C 158.503 54.929,172.824 50.828,178.203 53.459 M245.778 53.916 C 241.991 55.737,241.950 58.102,245.689 59.075 C 253.308 61.060,256.884 60.011,254.989 56.347 C 253.667 53.791,248.742 52.491,245.778 53.916 M284.889 58.219 C 285.541 58.502,286.866 59.052,287.834 59.441 C 294.444 62.097,297.739 66.335,294.497 68.011 C 293.208 68.678,292.684 68.554,290.484 67.062 C 285.036 63.371,280.263 62.197,278.375 64.084 C 276.183 66.276,277.568 68.442,282.425 70.416 C 289.457 73.273,291.854 77.493,289.707 83.233 C 287.164 90.028,279.452 90.374,269.399 84.141 C 265.927 81.989,265.079 80.116,266.750 78.296 C 267.730 77.230,268.947 77.427,271.443 79.056 C 277.344 82.906,281.216 83.870,282.932 81.916 C 284.577 80.042,283.823 77.721,281.139 76.402 C 280.594 76.134,278.948 75.339,277.481 74.635 C 271.850 71.934,270.061 68.445,271.597 63.162 C 272.987 58.381,279.602 55.920,284.889 58.219 M142.902 67.430 C 149.493 69.138,154.815 76.673,154.815 84.296 L 154.815 87.852 153.704 89.825 C 152.140 92.605,149.296 95.129,145.885 96.767 C 142.123 98.574,142.083 98.767,144.592 102.926 C 147.242 107.318,147.276 108.835,144.751 109.952 C 142.493 110.951,141.767 110.398,138.497 105.185 C 134.112 98.194,132.622 95.787,131.438 93.778 C 130.669 92.474,129.522 90.607,128.889 89.630 C 121.792 78.672,121.568 77.950,124.433 75.224 C 130.688 69.272,138.039 66.170,142.902 67.430 M173.603 68.858 C 167.600 70.423,165.493 74.859,169.572 77.346 C 171.938 78.789,179.405 76.105,180.038 73.583 C 181.126 69.249,178.762 67.513,173.603 68.858 M136.444 73.596 C 134.829 74.300,131.364 76.663,130.690 77.519 C 129.845 78.593,129.988 79.326,131.525 81.789 C 132.181 82.842,133.409 84.837,134.253 86.222 C 138.663 93.459,138.528 93.352,141.901 92.287 C 148.631 90.161,150.464 84.037,146.274 77.677 C 143.630 73.664,139.870 72.103,136.444 73.596 M343.767 84.358 C 346.079 86.615,345.778 88.544,341.630 98.074 C 341.169 99.133,340.523 100.800,340.196 101.778 C 339.868 102.756,339.139 104.756,338.575 106.222 C 336.558 111.468,335.044 115.438,334.337 117.333 C 333.941 118.393,333.369 119.726,333.065 120.296 C 332.761 120.867,332.285 122.133,332.008 123.111 C 331.042 126.521,329.035 127.292,326.997 125.036 C 325.507 123.387,325.826 121.289,328.526 114.963 C 330.035 111.431,329.797 110.737,325.627 106.506 C 321.343 102.160,321.005 101.160,323.428 100.010 C 324.883 99.320,326.300 99.860,328.832 102.070 C 331.872 104.723,332.481 104.631,333.732 101.333 C 334.134 100.274,335.019 97.941,335.700 96.148 C 336.381 94.356,337.047 92.536,337.180 92.104 C 337.667 90.529,336.265 90.222,333.946 91.397 C 333.153 91.799,331.857 92.386,331.067 92.701 C 330.276 93.016,328.230 93.904,326.519 94.674 C 321.691 96.845,318.807 98.071,317.106 98.676 C 316.248 98.981,314.914 99.566,314.143 99.976 C 306.798 103.879,303.789 104.111,302.063 100.906 C 301.315 99.518,301.593 99.084,304.013 97.864 C 305.960 96.882,306.794 96.522,315.556 92.886 C 318.407 91.703,321.874 90.240,323.259 89.636 C 324.644 89.032,327.044 88.005,328.593 87.354 C 330.141 86.703,332.674 85.634,334.222 84.979 C 340.159 82.465,341.724 82.363,343.767 84.358 M114.815 91.044 C 125.323 95.697,129.685 106.072,124.232 113.439 C 116.903 123.341,108.053 123.853,99.656 114.861 C 93.542 108.314,93.745 101.382,100.241 94.976 C 105.215 90.068,109.812 88.828,114.815 91.044 M106.971 96.859 C 98.834 99.751,100.395 110.142,109.630 114.566 C 112.955 116.159,117.245 114.341,119.586 110.345 C 123.171 104.228,113.955 94.376,106.971 96.859 M86.444 115.746 C 87.297 116.278,87.301 117.248,86.460 119.593 C 85.498 122.277,85.023 121.804,95.608 128.692 C 99.926 131.501,101.269 131.666,103.556 129.667 C 105.873 127.641,109.173 130.200,107.760 132.927 C 104.617 138.992,99.014 139.321,91.852 133.863 C 91.095 133.286,80.492 126.232,77.854 124.551 C 72.991 121.451,73.019 118.564,77.910 118.740 C 80.052 118.817,80.549 118.565,81.773 116.782 C 82.942 115.080,84.739 114.681,86.444 115.746 M357.213 116.771 C 357.604 117.202,357.823 117.999,357.926 119.360 L 358.074 121.327 359.548 122.367 C 364.062 125.554,364.877 128.251,361.599 129.156 C 360.315 129.510,359.949 129.382,358.102 127.928 C 354.815 125.341,352.271 125.223,349.246 127.519 C 348.561 128.039,346.034 129.727,343.630 131.269 C 341.227 132.812,338.684 134.445,337.979 134.899 C 335.446 136.530,333.785 136.213,332.564 133.867 C 331.545 131.907,332.198 131.069,337.333 127.750 C 338.963 126.696,343.175 123.924,346.694 121.590 C 355.054 116.044,356.115 115.559,357.213 116.771 M378.569 131.323 C 379.624 132.287,379.988 133.475,379.551 134.530 C 378.594 136.841,375.717 136.888,374.553 134.612 C 373.117 131.804,376.271 129.221,378.569 131.323 M368.306 135.561 C 369.942 136.407,370.639 139.109,369.556 140.408 C 369.115 140.936,352.598 149.459,350.049 150.474 C 349.574 150.663,348.598 151.150,347.879 151.557 C 343.853 153.836,339.830 149.809,343.276 146.949 C 344.095 146.270,366.324 135.150,366.904 135.130 C 367.197 135.119,367.828 135.313,368.306 135.561 M73.314 136.327 C 73.955 136.505,75.222 136.990,76.129 137.405 C 77.972 138.248,81.026 139.550,83.704 140.634 C 84.681 141.029,86.148 141.668,86.963 142.054 C 87.778 142.439,88.778 142.851,89.185 142.970 C 91.139 143.539,96.207 145.873,96.667 146.416 C 97.960 147.944,97.208 150.112,95.274 150.425 C 93.795 150.665,93.601 151.184,93.328 155.639 C 92.689 166.085,85.044 170.760,76.079 166.187 C 75.399 165.840,74.170 165.315,73.348 165.019 C 72.525 164.723,70.452 163.889,68.741 163.166 C 67.030 162.443,64.896 161.546,64.000 161.172 C 61.080 159.954,60.233 158.530,61.138 156.364 C 62.117 154.021,63.410 153.930,67.852 155.891 C 69.726 156.718,71.941 157.635,72.774 157.928 C 73.608 158.222,74.729 158.689,75.267 158.967 C 80.704 161.778,84.340 161.953,86.533 159.509 C 87.911 157.973,88.051 157.669,88.306 155.634 C 88.859 151.227,88.044 149.260,85.210 148.164 C 84.382 147.844,82.237 146.961,80.444 146.203 C 78.652 145.444,76.385 144.502,75.407 144.109 C 68.773 141.441,67.702 140.117,69.626 136.963 C 70.282 135.888,71.178 135.734,73.314 136.327 M253.350 142.824 C 254.199 143.278,254.778 144.611,255.407 147.556 C 255.718 149.009,256.168 150.576,256.407 151.038 C 256.646 151.500,257.051 152.739,257.307 153.791 C 257.563 154.843,258.172 156.970,258.661 158.519 C 260.549 164.505,263.009 172.948,263.624 175.556 C 263.855 176.533,264.317 178.133,264.650 179.111 C 264.983 180.089,265.507 181.822,265.814 182.963 C 266.121 184.104,266.763 186.304,267.240 187.852 C 268.185 190.922,269.961 196.884,271.388 201.778 C 271.886 203.489,272.423 205.582,272.581 206.428 C 272.739 207.275,273.090 208.475,273.362 209.095 C 273.633 209.715,274.226 211.556,274.679 213.185 C 275.132 214.815,276.134 218.215,276.906 220.741 C 278.291 225.269,279.476 229.415,280.464 233.185 C 280.742 234.244,281.296 236.111,281.696 237.333 C 282.095 238.556,282.660 240.489,282.950 241.630 C 283.239 242.770,283.906 244.952,284.430 246.478 C 287.073 254.169,287.173 254.090,271.556 256.597 C 269.437 256.937,266.304 257.482,264.593 257.809 C 262.881 258.135,259.415 258.721,256.889 259.111 C 254.363 259.501,251.588 260.017,250.721 260.259 C 249.855 260.500,247.922 260.855,246.425 261.048 C 244.928 261.241,241.570 261.908,238.963 262.531 C 233.057 263.943,226.876 265.150,222.815 265.683 C 221.104 265.908,218.099 266.428,216.137 266.837 C 214.176 267.247,211.043 267.781,209.174 268.023 C 207.306 268.265,204.844 268.724,203.704 269.041 C 202.563 269.359,199.844 269.888,197.663 270.218 C 195.481 270.547,192.547 271.080,191.144 271.402 C 189.741 271.724,186.725 272.252,184.443 272.574 C 182.160 272.896,179.427 273.360,178.368 273.604 C 177.310 273.848,175.178 274.191,173.630 274.366 C 172.081 274.541,169.281 275.008,167.407 275.405 C 154.827 278.067,153.121 275.972,161.002 267.542 C 161.999 266.476,163.873 264.076,165.167 262.209 C 166.461 260.342,168.801 257.081,170.366 254.963 C 171.932 252.844,173.901 250.091,174.742 248.844 C 175.582 247.598,177.109 245.453,178.135 244.079 C 179.161 242.704,180.371 241.058,180.824 240.419 C 181.278 239.781,182.878 237.526,184.380 235.407 C 185.882 233.288,187.857 230.555,188.769 229.333 C 189.681 228.111,191.006 226.244,191.714 225.185 C 192.421 224.126,194.281 221.526,195.846 219.407 C 197.411 217.289,198.941 215.156,199.246 214.667 C 199.784 213.803,204.201 207.715,206.644 204.469 C 208.269 202.309,209.896 201.584,214.430 201.002 C 216.353 200.755,219.436 200.216,221.281 199.804 C 223.126 199.393,226.259 198.812,228.244 198.514 C 230.228 198.217,232.809 197.804,233.980 197.596 C 238.897 196.726,239.150 198.420,234.960 204.148 C 233.827 205.696,231.586 208.830,229.980 211.111 C 228.374 213.393,226.205 216.415,225.160 217.828 C 222.355 221.619,219.777 225.215,219.165 226.187 C 218.868 226.659,217.327 228.793,215.739 230.929 C 208.782 240.293,208.468 241.435,213.117 240.459 C 216.290 239.792,219.169 239.259,221.926 238.827 C 223.148 238.635,225.415 238.213,226.963 237.888 C 228.511 237.564,231.311 237.098,233.185 236.853 C 235.059 236.609,237.726 236.159,239.111 235.853 C 240.496 235.548,243.361 235.077,245.476 234.806 C 253.934 233.724,254.813 233.032,253.417 228.557 C 251.396 222.075,250.677 219.604,250.200 217.490 C 249.925 216.272,249.460 214.714,249.165 214.027 C 248.871 213.340,248.470 211.937,248.274 210.908 C 248.078 209.879,247.606 208.282,247.225 207.359 C 246.844 206.436,246.393 205.036,246.222 204.248 C 246.051 203.460,245.389 201.148,244.752 199.111 C 242.969 193.412,241.851 189.585,241.635 188.444 C 241.528 187.874,241.049 186.253,240.572 184.841 C 240.094 183.430,239.704 182.053,239.704 181.780 C 239.704 181.508,239.250 179.929,238.695 178.272 C 234.703 166.353,234.619 165.622,236.880 162.417 C 237.645 161.332,239.694 158.420,241.432 155.945 C 248.808 145.444,250.513 143.110,251.073 142.745 C 251.556 142.431,252.689 142.470,253.350 142.824 M372.278 153.787 C 376.244 155.292,379.762 160.320,381.361 166.770 C 382.689 172.122,382.306 173.630,379.621 173.630 C 377.738 173.630,377.247 172.877,376.300 168.539 C 374.282 159.290,365.984 156.396,359.136 162.553 C 355.832 165.523,355.575 171.119,358.481 176.815 C 359.324 178.469,359.293 179.697,358.384 180.606 C 354.000 184.990,348.334 169.098,351.692 161.839 C 354.781 155.163,365.183 151.094,372.278 153.787 M85.037 176.000 C 86.735 177.698,84.871 181.255,81.926 181.938 C 81.111 182.127,78.712 182.835,76.594 183.511 C 72.032 184.968,72.181 184.783,71.567 189.737 C 70.837 195.623,70.017 197.307,68.074 196.918 C 65.899 196.483,65.245 194.831,65.777 191.117 C 66.412 186.687,66.184 186.603,58.834 188.561 C 49.870 190.948,49.853 191.059,57.778 195.367 C 59.489 196.297,61.889 197.642,63.111 198.356 C 64.333 199.069,66.733 200.417,68.444 201.350 C 71.167 202.835,78.296 206.904,79.786 207.823 C 81.614 208.951,81.791 212.284,80.094 213.619 C 79.129 214.379,78.812 214.291,75.464 212.337 C 70.648 209.527,69.203 208.696,65.630 206.685 C 60.385 203.732,56.635 201.530,54.963 200.422 C 54.148 199.882,53.215 199.333,52.889 199.201 C 52.147 198.901,48.510 196.843,45.789 195.184 C 40.828 192.159,41.263 186.915,46.581 185.616 C 47.769 185.326,49.175 184.908,49.705 184.688 C 50.236 184.467,51.569 184.091,52.668 183.851 C 53.767 183.612,55.933 183.018,57.481 182.532 C 63.347 180.691,67.176 179.565,69.037 179.134 C 70.096 178.888,71.696 178.435,72.593 178.128 C 73.489 177.821,75.231 177.346,76.465 177.073 C 77.698 176.800,79.365 176.319,80.169 176.006 C 82.154 175.230,84.265 175.228,85.037 176.000 M368.753 185.642 C 373.061 186.757,374.803 189.982,375.739 198.578 C 376.138 202.243,376.499 202.963,377.943 202.963 C 381.246 202.963,382.089 199.105,380.582 190.894 C 379.905 187.209,380.259 186.296,382.423 186.134 C 384.956 185.943,386.599 189.865,386.885 196.784 C 387.258 205.822,384.229 209.361,375.526 210.060 C 373.587 210.216,369.525 210.635,366.500 210.993 C 358.230 211.970,356.299 211.106,358.137 207.252 C 358.632 206.215,358.625 206.132,357.849 203.909 C 353.621 191.793,358.826 183.073,368.753 185.642 M364.077 192.018 C 359.694 194.333,361.879 204.733,366.705 204.522 C 369.858 204.383,370.543 203.343,370.265 199.110 C 369.845 192.694,367.622 190.147,364.077 192.018 " stroke="none" fill="#ffffff" fill-rule="evenodd"></path><path id="path1" d="M250.016 145.900 C 249.315 146.783,248.059 148.483,247.225 149.678 C 246.391 150.874,243.806 154.519,241.481 157.778 C 235.868 165.645,235.984 165.336,237.166 169.290 C 238.516 173.800,239.452 177.032,240.013 179.111 C 240.321 180.252,240.970 182.452,241.455 184.000 C 241.940 185.548,242.887 188.681,243.560 190.963 C 244.233 193.244,245.159 196.378,245.619 197.926 C 246.078 199.474,246.540 201.141,246.645 201.630 C 246.750 202.119,247.286 203.985,247.836 205.778 C 248.386 207.570,249.325 210.704,249.924 212.741 C 250.523 214.778,251.460 217.911,252.006 219.704 C 256.559 234.633,256.668 234.188,248.148 235.413 C 246.356 235.671,243.689 236.135,242.222 236.444 C 240.756 236.753,237.817 237.273,235.692 237.598 C 233.567 237.924,230.606 238.457,229.112 238.783 C 227.617 239.109,225.289 239.523,223.938 239.702 C 222.587 239.881,219.452 240.422,216.971 240.903 C 206.725 242.890,206.129 242.151,211.786 234.480 C 213.635 231.971,215.642 229.180,222.519 219.556 C 223.159 218.659,224.788 216.378,226.138 214.485 C 227.488 212.593,229.171 210.259,229.879 209.300 C 233.532 204.346,236.148 200.443,236.148 199.949 C 236.148 198.528,232.322 198.600,225.481 200.151 C 223.770 200.539,220.837 201.056,218.963 201.301 C 209.479 202.538,209.066 202.771,204.224 209.630 C 200.202 215.325,191.579 227.380,190.236 229.185 C 188.974 230.879,181.884 240.766,179.777 243.770 C 179.002 244.874,177.493 246.978,176.423 248.444 C 175.354 249.911,172.381 254.044,169.818 257.630 C 167.255 261.215,163.913 265.815,162.393 267.852 C 157.218 274.785,157.270 275.783,162.752 274.687 C 164.416 274.354,167.178 273.878,168.889 273.628 C 170.600 273.378,173.224 272.911,174.719 272.590 C 176.215 272.269,178.815 271.804,180.497 271.556 C 182.179 271.307,185.156 270.781,187.111 270.387 C 189.067 269.992,192.267 269.453,194.222 269.188 C 196.178 268.924,198.778 268.459,200.000 268.155 C 201.222 267.852,203.489 267.448,205.037 267.258 C 206.585 267.068,209.319 266.603,211.111 266.224 C 212.904 265.844,215.437 265.383,216.741 265.198 C 218.044 265.013,221.511 264.413,224.444 263.865 C 227.378 263.317,232.311 262.394,235.407 261.815 C 238.504 261.236,241.837 260.680,242.815 260.580 C 243.793 260.479,245.926 260.086,247.556 259.705 C 249.185 259.325,252.119 258.793,254.074 258.523 C 256.030 258.254,258.696 257.785,260.000 257.482 C 261.304 257.179,263.877 256.721,265.718 256.465 C 267.559 256.209,270.293 255.729,271.792 255.399 C 273.292 255.068,276.304 254.534,278.486 254.210 C 284.837 253.269,285.208 252.805,283.616 247.796 C 283.108 246.197,282.604 244.356,282.497 243.704 C 282.390 243.052,281.992 241.719,281.614 240.741 C 281.236 239.763,280.710 238.096,280.446 237.037 C 280.182 235.978,279.588 233.911,279.125 232.444 C 277.967 228.777,276.825 224.920,276.012 221.926 C 274.930 217.949,273.813 214.047,272.744 210.519 C 271.686 207.024,270.290 202.305,268.624 196.593 C 268.054 194.637,267.113 191.456,266.534 189.524 C 265.955 187.592,265.479 185.792,265.476 185.524 C 265.472 185.256,265.069 183.904,264.579 182.519 C 264.089 181.133,263.489 179.147,263.245 178.104 C 263.002 177.061,262.481 175.261,262.087 174.104 C 261.401 172.088,260.753 169.890,258.931 163.407 C 257.317 157.663,256.824 155.974,255.991 153.333 C 255.529 151.867,254.860 149.566,254.505 148.220 C 253.354 143.856,252.141 143.229,250.016 145.900 " stroke="none" fill="#c33143" fill-rule="evenodd"></path><path id="path2" d="M217.331 44.535 C 216.764 49.152,217.025 69.159,217.671 70.556 C 218.809 73.017,222.116 74.611,224.725 73.956 C 226.216 73.582,225.728 72.466,223.760 71.748 C 220.275 70.477,220.101 69.897,220.137 59.649 C 220.172 49.642,220.409 48.889,223.517 48.889 C 224.894 48.889,225.481 48.631,225.481 48.028 C 225.481 47.202,224.845 46.815,223.484 46.815 C 221.784 46.815,220.017 45.877,219.026 44.448 C 217.841 42.739,217.550 42.754,217.331 44.535 M219.477 46.082 C 219.832 46.330,220.895 46.925,221.839 47.403 C 223.095 48.039,223.369 48.276,222.861 48.284 C 220.059 48.332,219.605 49.885,219.517 59.726 C 219.424 69.999,219.631 70.666,223.493 72.590 C 224.195 72.939,224.247 73.041,223.839 73.270 C 223.069 73.700,221.286 73.210,219.936 72.197 C 217.709 70.526,217.744 70.757,217.763 57.944 C 217.782 44.797,217.770 44.886,219.477 46.082 M201.199 49.331 C 198.644 50.876,198.283 50.928,197.091 49.926 C 195.050 48.209,194.411 49.077,194.924 52.870 C 195.123 54.347,195.535 58.022,195.838 61.037 C 197.067 73.250,198.185 76.836,200.102 74.717 C 200.732 74.022,200.718 73.193,200.003 69.043 C 197.821 56.368,198.362 52.829,202.832 50.539 C 204.586 49.640,205.185 49.182,205.185 48.741 C 205.185 47.626,203.639 47.855,201.199 49.331 M245.729 49.829 C 239.826 50.487,236.143 56.727,236.494 65.475 C 236.759 72.071,240.500 75.553,248.444 76.599 C 254.666 77.419,254.622 77.417,255.259 76.933 C 256.200 76.220,255.504 75.865,252.266 75.405 C 247.567 74.736,243.438 73.073,241.698 71.148 C 239.705 68.942,238.966 66.382,239.690 64.190 C 240.368 62.135,241.469 61.852,245.057 62.810 C 246.268 63.134,248.193 63.479,249.333 63.578 C 250.474 63.677,252.653 64.087,254.176 64.489 C 258.573 65.649,259.458 65.126,260.161 60.960 C 261.482 53.132,255.751 48.712,245.729 49.829 M197.599 51.117 L 199.052 52.161 198.604 53.858 C 198.101 55.768,198.446 62.961,199.304 68.444 C 200.067 73.325,200.097 73.748,199.711 74.214 C 199.133 74.910,198.277 74.253,198.076 72.959 C 197.982 72.350,197.640 70.385,197.317 68.593 C 196.526 64.209,196.168 61.262,196.157 59.046 C 196.152 58.032,195.938 55.788,195.681 54.059 C 195.026 49.653,195.197 49.391,197.599 51.117 M244.575 51.398 C 244.259 51.637,243.847 51.837,243.660 51.842 C 242.963 51.862,241.527 53.936,240.894 55.837 L 240.239 57.804 241.057 59.421 C 241.507 60.311,241.820 61.078,241.752 61.127 C 241.685 61.176,241.266 61.444,240.821 61.722 C 236.844 64.209,239.444 72.174,244.795 73.894 C 247.440 74.745,248.561 75.432,247.734 75.694 C 245.180 76.505,240.419 73.777,238.200 70.231 C 237.056 68.403,236.558 62.373,237.330 59.705 C 238.597 55.330,239.455 53.959,242.074 52.131 C 243.654 51.028,245.956 50.353,244.575 51.398 M256.130 52.092 C 260.748 54.960,261.143 65.444,256.596 64.445 C 255.181 64.134,254.950 63.562,255.951 62.850 C 259.142 60.578,257.831 53.937,253.782 51.854 C 252.187 51.034,252.154 50.957,253.407 50.981 C 253.977 50.992,255.090 51.446,256.130 52.092 M252.055 52.010 C 254.392 52.889,254.875 53.274,256.145 55.259 C 259.151 59.958,256.191 63.643,250.926 61.758 C 250.213 61.503,248.448 61.169,247.003 61.016 C 242.692 60.560,241.185 59.609,241.185 57.341 C 241.185 52.884,246.913 50.074,252.055 52.010 M170.963 54.512 C 166.599 54.977,160.593 57.563,160.593 58.978 C 160.593 59.853,161.795 59.714,164.407 58.539 C 171.425 55.382,177.431 56.270,178.240 60.585 C 178.691 62.988,177.329 64.286,173.728 64.888 C 167.478 65.933,162.062 70.471,162.436 74.351 C 163.161 81.879,170.763 84.255,178.667 79.423 C 181.866 77.468,182.812 77.037,183.913 77.037 C 186.600 77.037,186.770 76.344,185.223 71.723 C 183.771 67.384,182.033 61.836,181.645 60.296 C 180.502 55.770,176.994 53.871,170.963 54.512 M177.796 55.781 C 179.275 56.778,180.652 58.758,181.198 60.672 C 181.464 61.606,182.058 63.570,182.518 65.037 C 182.978 66.504,183.444 68.237,183.554 68.889 C 183.663 69.541,184.125 70.941,184.580 72.000 C 186.191 75.750,186.099 76.063,183.272 76.464 C 182.168 76.620,181.147 76.821,181.003 76.910 C 180.456 77.248,180.775 76.483,181.630 75.407 C 182.804 73.929,182.803 72.422,181.624 69.364 C 180.183 65.629,178.112 64.856,173.935 66.494 C 172.597 67.019,171.479 67.264,170.691 67.203 L 169.488 67.111 170.516 66.410 C 171.215 65.933,172.281 65.614,173.846 65.412 C 177.206 64.979,177.760 64.708,178.443 63.163 C 179.603 60.541,178.501 58.154,175.410 56.594 C 173.016 55.385,172.949 55.111,175.050 55.111 C 176.378 55.111,177.041 55.273,177.796 55.781 M170.519 55.704 C 170.627 55.880,170.281 56.000,169.665 56.000 C 169.094 56.000,168.545 56.133,168.444 56.296 C 168.344 56.459,167.903 56.592,167.464 56.591 L 166.667 56.589 167.474 56.168 C 168.203 55.788,168.992 55.561,169.983 55.448 C 170.177 55.426,170.418 55.541,170.519 55.704 M165.778 57.106 C 165.452 57.188,164.852 57.486,164.444 57.769 C 163.507 58.420,162.074 58.785,162.074 58.372 C 162.074 57.779,163.983 56.891,165.185 56.924 C 165.839 56.943,166.104 57.024,165.778 57.106 M277.851 59.023 C 275.034 59.771,272.610 63.135,272.599 66.311 C 272.588 69.602,273.954 71.091,279.556 73.890 C 284.941 76.580,286.043 77.851,285.500 80.747 C 284.689 85.067,280.250 85.518,273.266 81.989 C 269.449 80.061,269.007 79.903,268.589 80.321 C 267.733 81.177,271.414 84.076,274.370 84.875 C 274.778 84.985,275.862 85.401,276.780 85.798 C 282.730 88.374,287.442 86.590,288.623 81.315 C 289.608 76.910,287.032 73.757,280.618 71.522 C 273.311 68.976,274.301 60.993,281.877 61.379 C 284.295 61.503,286.708 62.582,290.699 65.328 C 292.333 66.452,293.536 66.664,293.836 65.880 C 294.343 64.561,286.987 60.420,281.778 59.091 C 279.923 58.619,279.408 58.610,277.851 59.023 M281.185 59.821 C 281.843 60.005,281.760 60.071,280.444 60.413 C 277.051 61.294,276.572 61.588,275.811 63.259 C 274.176 66.854,276.136 71.086,279.852 71.983 C 288.270 74.016,291.009 81.061,285.125 85.547 C 283.800 86.558,280.382 86.731,279.125 85.851 C 278.301 85.273,278.346 85.251,281.314 84.795 C 285.198 84.198,287.097 81.326,285.935 77.806 C 285.578 76.725,282.671 74.370,281.692 74.370 C 281.464 74.370,280.455 73.839,279.450 73.190 C 278.445 72.540,277.125 71.754,276.515 71.442 C 272.269 69.272,271.617 65.049,275.036 61.868 C 277.367 59.699,278.909 59.186,281.185 59.821 M248.867 61.963 C 250.250 62.445,249.570 62.940,247.874 62.685 C 246.583 62.492,246.278 62.266,246.716 61.827 C 247.007 61.537,247.786 61.586,248.867 61.963 M291.259 64.296 C 291.259 64.459,291.451 64.593,291.686 64.593 C 291.921 64.593,292.201 64.735,292.308 64.909 C 292.696 65.535,292.234 65.460,291.255 64.737 C 290.581 64.240,290.419 64.000,290.757 64.000 C 291.033 64.000,291.259 64.133,291.259 64.296 M179.374 66.705 C 180.599 67.264,182.188 71.908,181.784 73.751 C 181.558 74.777,179.049 77.386,177.672 78.024 C 177.160 78.262,176.074 78.763,175.259 79.139 C 168.339 82.328,162.397 74.567,167.935 69.573 C 168.602 68.971,169.723 68.322,170.426 68.131 C 171.129 67.939,172.637 67.475,173.778 67.100 C 176.069 66.346,178.247 66.192,179.374 66.705 M166.083 70.550 C 164.043 74.930,166.545 80.593,170.521 80.593 C 171.208 80.593,171.276 80.660,170.963 81.037 C 170.349 81.777,169.544 81.624,166.567 80.199 C 162.290 78.152,161.817 71.734,165.764 69.302 C 166.929 68.584,166.953 68.681,166.083 70.550 M137.093 69.362 C 133.675 70.166,125.008 76.017,124.554 77.827 C 124.259 79.000,126.648 83.424,131.967 91.556 C 133.193 93.430,135.249 96.763,136.537 98.963 C 141.164 106.870,142.429 108.497,143.852 108.373 C 145.370 108.242,145.180 107.201,142.978 103.569 C 141.106 100.481,140.917 99.982,141.017 98.370 C 141.080 97.367,142.748 95.924,144.339 95.497 C 151.170 93.664,155.063 86.283,152.522 79.982 C 148.918 71.045,144.084 67.718,137.093 69.362 M145.836 71.190 C 148.973 73.361,152.889 80.652,152.889 84.322 C 152.889 86.900,149.840 91.942,147.603 93.065 C 147.170 93.282,146.461 93.698,146.028 93.989 C 145.080 94.628,143.725 94.746,144.349 94.136 C 144.565 93.926,145.074 93.523,145.481 93.242 C 152.935 88.092,152.992 81.558,145.655 73.517 C 144.748 72.523,141.533 70.823,140.525 70.805 C 139.254 70.783,138.836 69.971,140.044 69.872 C 142.490 69.671,144.205 70.061,145.836 71.190 M138.074 70.484 C 138.074 70.764,137.074 71.100,136.222 71.107 C 134.846 71.118,135.941 70.332,137.407 70.257 C 137.774 70.238,138.074 70.340,138.074 70.484 M141.969 71.989 C 146.130 73.274,150.860 80.536,150.420 84.964 C 150.079 88.390,147.713 91.306,143.509 93.479 C 138.584 96.025,137.640 95.365,131.861 85.333 C 131.157 84.111,130.187 82.537,129.704 81.835 C 127.998 79.351,128.217 77.267,130.358 75.633 C 133.675 73.099,134.445 72.623,136.000 72.146 C 136.896 71.871,137.763 71.602,137.926 71.550 C 138.718 71.294,140.264 71.462,141.969 71.989 M132.440 72.815 C 132.432 73.213,132.027 73.610,130.281 74.937 C 127.597 76.977,127.149 79.713,129.143 81.899 C 129.454 82.240,130.210 83.452,130.823 84.593 C 135.178 92.691,137.377 95.397,139.615 95.412 C 140.936 95.421,141.136 95.778,140.638 97.244 C 139.964 99.229,140.324 100.382,143.103 105.132 C 144.415 107.375,144.440 108.267,143.174 107.589 C 142.273 107.107,138.372 101.278,135.716 96.444 C 134.910 94.978,133.446 92.644,132.461 91.259 C 131.477 89.874,130.352 88.141,129.961 87.407 C 129.570 86.674,128.596 85.007,127.797 83.704 C 125.538 80.020,124.976 78.716,125.291 77.891 C 125.941 76.183,132.466 71.550,132.440 72.815 M271.852 82.074 C 271.953 82.237,272.229 82.370,272.466 82.370 C 273.007 82.370,274.954 83.614,274.959 83.963 C 274.966 84.470,273.160 83.850,271.633 82.822 C 270.231 81.878,270.158 81.778,270.875 81.778 C 271.312 81.778,271.751 81.911,271.852 82.074 M339.852 84.425 C 339.444 84.550,338.516 84.955,337.789 85.327 C 336.062 86.209,332.851 87.570,330.074 88.597 C 327.115 89.692,324.938 90.575,322.963 91.484 C 322.067 91.896,320.600 92.534,319.704 92.902 C 318.807 93.270,316.541 94.262,314.667 95.106 C 312.793 95.950,310.526 96.889,309.630 97.193 C 304.592 98.901,303.243 99.964,304.579 101.173 C 305.656 102.147,308.806 101.042,317.630 96.593 C 318.526 96.141,319.593 95.676,320.000 95.559 C 320.407 95.443,321.407 95.038,322.222 94.659 C 324.175 93.751,327.229 92.514,328.889 91.958 C 329.622 91.713,331.422 90.916,332.889 90.187 C 338.573 87.363,340.409 88.480,338.548 93.630 C 333.609 107.296,332.630 108.203,327.767 103.606 C 325.925 101.865,324.890 101.206,324.438 101.485 C 323.730 101.923,324.359 102.868,327.293 105.777 C 332.154 110.596,332.138 110.451,328.774 119.199 C 327.819 121.684,327.752 123.402,328.595 123.853 C 329.432 124.301,330.434 123.230,331.109 121.167 C 331.399 120.281,331.886 119.059,332.191 118.452 C 332.496 117.844,333.156 116.178,333.658 114.748 C 336.574 106.439,337.906 102.922,339.076 100.444 C 339.500 99.548,339.847 98.647,339.849 98.441 C 339.851 98.236,340.128 97.480,340.466 96.761 C 340.804 96.042,341.456 94.411,341.916 93.135 C 342.376 91.859,342.975 90.219,343.248 89.491 C 343.934 87.665,343.656 86.516,342.213 85.212 C 340.955 84.075,340.975 84.082,339.852 84.425 M342.207 85.826 C 343.049 86.896,343.254 87.882,342.866 88.994 C 342.688 89.507,342.200 90.921,341.781 92.137 C 341.363 93.353,340.761 94.789,340.443 95.328 C 340.125 95.867,339.649 97.072,339.386 98.006 C 339.122 98.940,338.597 100.184,338.219 100.771 C 337.633 101.680,335.433 107.698,333.300 114.222 C 332.981 115.200,332.329 116.800,331.852 117.778 C 331.376 118.756,330.763 120.187,330.491 120.959 C 329.901 122.633,329.275 123.286,328.871 122.648 C 328.516 122.085,328.818 120.501,329.639 118.631 C 331.981 113.290,332.226 110.472,330.539 108.262 C 329.143 106.434,329.180 106.348,331.263 106.566 C 332.761 106.722,333.144 106.663,333.672 106.191 C 334.418 105.523,336.812 100.627,337.082 99.215 C 337.186 98.669,337.606 97.556,338.016 96.741 C 341.452 89.901,339.883 86.046,334.639 88.444 C 333.748 88.852,332.951 89.185,332.867 89.185 C 332.783 89.185,332.355 89.519,331.915 89.927 C 331.476 90.334,330.181 90.991,329.039 91.385 C 325.660 92.552,322.321 93.805,320.790 94.480 C 320.003 94.827,319.066 95.111,318.710 95.111 C 318.353 95.111,317.597 95.487,317.030 95.947 C 316.464 96.407,315.400 97.016,314.667 97.300 C 313.933 97.584,312.867 98.121,312.296 98.493 C 311.726 98.865,310.393 99.471,309.333 99.841 C 308.274 100.211,307.281 100.631,307.126 100.775 C 306.705 101.167,305.302 101.091,304.942 100.657 C 304.474 100.093,304.904 99.628,306.378 99.109 C 307.102 98.853,307.963 98.469,308.291 98.256 C 308.620 98.042,309.622 97.695,310.519 97.484 C 311.415 97.273,312.748 96.794,313.481 96.419 C 314.215 96.044,315.215 95.653,315.704 95.549 C 316.759 95.326,317.932 94.800,318.439 94.323 C 318.640 94.134,319.440 93.743,320.217 93.453 C 320.994 93.164,322.169 92.565,322.828 92.121 C 323.487 91.678,324.604 91.159,325.311 90.969 C 326.019 90.778,327.328 90.288,328.221 89.880 C 329.114 89.471,330.330 89.071,330.923 88.990 C 331.515 88.909,332.467 88.603,333.037 88.310 C 333.607 88.016,334.607 87.607,335.259 87.401 C 335.911 87.194,336.978 86.664,337.630 86.223 C 339.816 84.744,341.258 84.619,342.207 85.826 M106.917 92.336 C 102.017 93.981,96.889 100.541,96.889 105.163 C 96.889 109.400,101.663 115.988,106.439 118.340 C 117.050 123.566,129.346 109.799,122.958 99.845 C 119.049 93.752,112.221 90.556,106.917 92.336 M113.590 92.912 C 115.640 93.494,121.305 98.092,122.588 100.214 C 124.871 103.990,124.555 109.952,121.927 112.686 C 120.903 113.751,120.738 113.564,121.280 111.954 C 122.775 107.512,122.796 107.264,121.926 104.471 C 119.611 97.043,111.278 91.733,106.074 94.370 C 104.375 95.231,104.296 95.246,104.296 94.700 C 104.296 94.256,105.448 93.632,107.556 92.935 C 110.077 92.102,110.728 92.099,113.590 92.912 M113.630 95.560 C 125.029 101.024,124.046 116.294,112.296 116.282 C 108.312 116.278,105.890 114.923,102.282 110.680 C 95.533 102.741,104.285 91.080,113.630 95.560 M99.339 101.703 C 97.888 105.861,100.425 110.932,105.881 114.778 C 108.651 116.731,112.055 117.234,116.296 116.319 C 118.488 115.846,118.648 115.960,117.331 117.053 C 114.683 119.253,109.939 119.500,106.258 117.629 C 103.989 116.475,98.924 110.973,98.120 108.788 C 97.040 105.854,98.420 98.523,99.882 99.426 C 99.996 99.497,99.752 100.521,99.339 101.703 M82.963 118.222 C 81.512 119.956,80.552 120.528,78.664 120.787 C 76.270 121.115,76.727 121.946,80.741 124.566 C 88.380 129.553,92.993 132.635,93.749 133.257 C 98.291 136.991,103.174 136.991,105.645 133.257 C 107.016 131.186,105.607 130.222,103.572 131.839 C 100.813 134.031,99.529 133.486,86.670 124.660 C 84.055 122.865,83.489 121.331,84.588 119.014 C 85.702 116.666,84.682 116.169,82.963 118.222 M352.094 120.096 C 345.883 124.024,343.712 125.427,341.926 126.666 C 340.867 127.401,338.700 128.872,337.111 129.935 C 334.615 131.604,334.222 131.979,334.222 132.689 C 334.222 134.990,335.582 134.709,340.367 131.418 C 352.274 123.229,353.447 122.847,357.827 125.733 C 360.191 127.291,361.185 127.494,361.185 126.422 C 361.185 125.615,360.398 124.838,358.439 123.713 C 356.568 122.637,356.148 121.971,356.148 120.082 C 356.148 118.000,355.405 118.002,352.094 120.096 M355.074 120.222 C 355.157 120.507,355.310 121.341,355.413 122.074 L 355.600 123.407 353.619 123.448 C 352.107 123.480,351.453 123.634,350.856 124.103 C 350.426 124.441,348.807 125.402,347.259 126.239 C 345.711 127.076,344.178 127.995,343.852 128.281 C 342.298 129.645,335.949 133.663,335.486 133.575 C 334.222 133.334,334.723 132.207,336.608 131.050 C 337.614 130.432,339.273 129.326,340.294 128.593 C 350.116 121.535,354.700 118.939,355.074 120.222 M83.423 121.635 C 83.814 123.173,84.492 123.917,86.857 125.403 C 87.567 125.849,88.881 126.810,89.778 127.538 C 91.298 128.773,93.500 130.157,97.518 132.402 C 99.811 133.684,101.879 133.703,103.732 132.458 C 105.966 130.958,105.915 132.780,103.673 134.583 C 101.257 136.525,97.778 135.712,93.158 132.127 C 91.185 130.596,83.108 125.336,82.721 125.330 C 82.610 125.329,81.956 124.896,81.269 124.367 C 80.582 123.839,79.682 123.168,79.269 122.875 C 78.212 122.125,78.334 121.630,79.678 121.228 C 80.315 121.037,81.215 120.683,81.678 120.442 C 82.827 119.843,82.998 119.959,83.423 121.635 M359.403 125.023 C 359.808 125.335,360.049 125.679,359.939 125.790 C 359.670 126.059,357.973 125.291,357.792 124.819 C 357.575 124.253,358.564 124.379,359.403 125.023 M376.197 133.164 C 376.004 133.668,376.732 134.354,377.172 134.082 C 377.342 133.977,377.481 133.632,377.481 133.316 C 377.481 132.637,376.447 132.514,376.197 133.164 M361.481 139.510 C 358.793 140.789,354.859 142.758,352.741 143.887 C 350.622 145.015,347.979 146.394,346.867 146.951 C 344.498 148.137,343.567 149.117,344.015 149.954 C 344.761 151.348,345.083 151.238,355.111 146.159 C 357.393 145.004,360.993 143.226,363.111 142.207 C 368.167 139.777,368.903 139.019,367.534 137.651 C 366.850 136.967,366.795 136.984,361.481 139.510 M70.874 138.133 C 69.492 139.516,70.975 140.710,76.874 142.963 C 87.921 147.182,88.704 147.671,89.644 150.946 C 91.449 157.235,87.208 163.821,81.778 163.161 C 80.472 163.003,75.658 161.088,72.765 159.576 C 71.963 159.157,71.142 158.815,70.939 158.815 C 70.737 158.815,69.734 158.419,68.710 157.934 C 65.860 156.587,63.859 156.212,63.112 156.888 C 61.535 158.316,62.318 158.871,70.222 161.923 C 73.244 163.090,77.073 164.741,78.797 165.621 C 80.436 166.457,84.963 166.584,86.411 165.834 C 89.492 164.239,91.623 159.596,91.741 154.222 C 91.828 150.299,92.198 149.546,94.236 149.138 C 96.096 148.766,95.549 147.545,93.037 146.460 C 92.141 146.073,90.874 145.497,90.222 145.180 C 89.570 144.862,88.104 144.216,86.963 143.742 C 85.822 143.269,83.756 142.384,82.370 141.774 C 80.985 141.165,78.785 140.271,77.481 139.788 C 76.178 139.305,74.444 138.659,73.630 138.353 C 71.880 137.696,71.353 137.654,70.874 138.133 M367.195 138.444 C 367.531 139.384,365.464 140.651,358.370 143.851 C 354.509 145.593,351.512 147.109,350.633 147.765 C 349.549 148.573,346.340 149.926,345.505 149.926 C 344.047 149.926,344.898 148.556,347.008 147.507 C 347.554 147.236,349.400 146.319,351.111 145.469 C 352.822 144.619,354.569 143.680,354.993 143.381 C 356.039 142.643,360.108 140.613,361.926 139.921 C 362.741 139.612,363.874 139.070,364.444 138.717 C 365.591 138.009,366.989 137.870,367.195 138.444 M74.241 139.224 C 74.882 139.531,75.874 139.876,76.444 139.989 C 77.525 140.205,80.537 141.480,84.604 143.443 C 85.914 144.075,87.151 144.593,87.352 144.593 C 87.554 144.593,88.615 145.042,89.711 145.591 C 90.807 146.140,92.037 146.689,92.444 146.811 C 94.270 147.358,94.609 148.234,93.259 148.915 C 92.730 149.182,91.942 149.733,91.508 150.138 L 90.720 150.875 90.197 150.077 C 89.910 149.639,89.454 148.869,89.185 148.367 C 88.616 147.306,85.052 145.327,81.851 144.295 C 80.751 143.940,79.719 143.547,79.556 143.421 C 79.393 143.294,78.331 142.896,77.197 142.535 C 76.063 142.173,74.797 141.644,74.383 141.358 C 73.968 141.072,73.096 140.632,72.444 140.380 C 71.655 140.075,71.228 139.712,71.165 139.294 C 71.039 138.464,72.577 138.429,74.241 139.224 M363.556 155.067 C 357.293 156.540,353.525 160.027,352.292 165.491 C 351.513 168.943,354.916 179.417,356.607 178.768 C 357.346 178.485,357.240 178.030,355.286 173.108 C 352.398 165.834,357.988 158.288,366.499 157.970 C 372.248 157.755,375.137 160.122,377.625 167.084 C 379.321 171.835,380.538 172.508,379.931 168.361 C 379.455 165.107,376.885 159.405,375.080 157.599 C 372.553 155.071,367.892 154.047,363.556 155.067 M370.697 155.609 C 373.309 156.515,375.363 158.265,376.300 160.385 C 377.255 162.543,376.728 162.581,374.671 160.504 C 371.969 157.775,371.237 157.483,367.111 157.482 C 360.365 157.481,354.769 161.639,353.752 167.407 C 353.445 169.150,353.316 169.470,353.154 168.889 C 352.344 165.977,354.462 160.428,357.171 158.361 C 358.087 157.662,360.258 156.733,363.407 155.691 C 364.901 155.197,369.365 155.147,370.697 155.609 M67.916 158.174 C 68.940 158.669,70.178 159.172,70.667 159.291 C 71.156 159.409,72.168 159.883,72.916 160.343 C 73.665 160.802,74.811 161.367,75.464 161.597 C 76.116 161.827,77.217 162.305,77.911 162.659 C 81.560 164.521,85.245 164.065,87.912 161.422 C 89.934 159.418,90.320 159.582,89.170 161.956 C 87.331 165.756,82.487 167.124,78.675 164.919 C 77.414 164.189,72.366 162.000,71.111 161.639 C 70.704 161.522,69.504 161.052,68.444 160.595 C 67.385 160.138,65.875 159.536,65.089 159.257 C 63.608 158.731,63.212 158.270,63.529 157.443 C 63.794 156.753,65.597 157.053,67.916 158.174 M79.852 177.837 C 78.711 178.162,76.711 178.766,75.407 179.180 C 73.096 179.913,68.018 181.271,64.444 182.113 C 63.467 182.343,61.467 182.926,60.000 183.409 C 58.533 183.892,56.600 184.437,55.704 184.620 C 54.807 184.804,53.474 185.205,52.741 185.512 C 52.007 185.819,50.074 186.398,48.444 186.798 C 45.102 187.619,44.588 188.026,44.279 190.087 C 44.052 191.602,44.564 192.658,45.877 193.380 C 50.364 195.849,52.618 197.135,54.370 198.227 C 56.501 199.555,57.552 200.158,64.101 203.817 C 66.194 204.986,68.728 206.490,69.731 207.158 C 73.876 209.919,78.873 212.282,79.308 211.687 C 80.323 210.300,79.314 209.169,75.111 206.983 C 71.000 204.845,68.255 203.304,65.333 201.493 C 64.193 200.787,61.993 199.548,60.444 198.741 C 55.646 196.240,49.822 192.769,49.279 192.086 C 48.152 190.667,50.949 188.807,56.326 187.401 C 58.510 186.830,61.025 186.165,61.916 185.922 C 66.790 184.596,68.000 185.490,68.000 190.415 C 68.000 195.483,68.675 195.563,69.613 190.606 C 70.987 183.350,71.343 182.975,78.532 181.196 C 82.222 180.283,83.259 179.625,83.259 178.197 C 83.259 177.061,82.759 177.008,79.852 177.837 M82.074 178.782 C 82.074 179.380,79.785 180.363,77.438 180.774 C 73.426 181.476,70.768 183.328,69.846 186.063 C 69.294 187.702,69.018 187.803,68.420 186.585 C 67.518 184.748,63.730 184.532,59.021 186.050 C 57.994 186.381,56.019 186.850,54.632 187.092 C 51.207 187.690,48.296 189.763,48.296 191.605 C 48.296 192.389,51.853 195.196,54.028 196.128 C 54.789 196.454,55.702 196.992,56.058 197.324 C 56.413 197.655,56.860 197.926,57.050 197.926 C 57.240 197.926,58.648 198.533,60.179 199.276 C 62.764 200.529,64.056 201.317,67.111 203.501 C 67.763 203.967,68.763 204.527,69.333 204.745 C 69.904 204.962,70.704 205.361,71.111 205.630 C 71.519 205.899,72.308 206.301,72.865 206.523 C 76.694 208.053,79.579 210.206,78.736 210.905 C 78.296 211.270,73.090 208.840,70.963 207.277 C 70.311 206.797,69.099 205.898,68.269 205.277 C 67.439 204.656,66.675 204.148,66.571 204.148 C 65.737 204.148,57.979 199.924,56.737 198.793 C 56.409 198.495,55.649 198.045,55.049 197.795 C 54.449 197.544,53.633 197.013,53.235 196.615 C 52.574 195.955,50.396 194.821,46.766 193.247 C 43.007 191.618,44.193 188.138,48.766 187.379 C 50.219 187.138,52.274 186.555,53.333 186.084 C 54.393 185.612,56.024 185.089,56.958 184.920 C 57.892 184.752,59.383 184.282,60.271 183.876 C 61.159 183.470,63.015 182.926,64.397 182.667 C 65.778 182.408,67.644 181.938,68.543 181.622 C 69.442 181.306,70.955 180.961,71.904 180.855 C 72.853 180.749,74.430 180.326,75.407 179.915 C 78.335 178.685,82.074 178.050,82.074 178.782 M364.119 186.967 C 361.507 187.409,358.462 189.978,358.069 192.072 C 357.517 195.016,358.036 200.362,359.079 202.465 C 360.041 204.404,360.074 204.579,359.888 206.815 C 359.623 209.984,358.869 209.798,369.630 209.218 C 380.869 208.613,383.734 207.237,384.743 201.961 C 385.766 196.615,384.494 187.952,382.724 188.204 C 381.808 188.334,381.762 189.247,382.519 192.218 C 384.371 199.479,382.156 205.016,377.394 205.032 C 374.749 205.041,374.487 204.476,373.918 197.532 C 373.378 190.938,371.516 187.808,367.638 186.977 C 366.052 186.636,366.072 186.636,364.119 186.967 M368.840 187.977 C 370.328 188.752,372.452 191.876,372.438 193.270 C 372.432 193.826,372.359 193.780,371.961 192.972 C 370.126 189.252,364.500 188.139,361.555 190.913 C 359.578 192.776,359.108 195.390,359.878 200.228 C 360.112 201.699,359.407 201.783,358.866 200.349 C 358.463 199.279,358.180 194.764,358.411 193.079 C 358.968 189.009,365.078 186.020,368.840 187.977 M383.663 191.661 C 383.641 192.907,383.566 193.593,383.497 193.185 C 383.428 192.778,383.164 191.883,382.909 191.196 C 382.396 189.811,382.543 188.951,383.248 189.222 C 383.608 189.360,383.695 189.871,383.663 191.661 M368.237 190.344 C 372.593 192.620,374.091 203.522,370.322 205.519 C 368.602 206.430,364.532 206.285,363.192 205.266 C 360.088 202.902,359.005 195.174,361.348 192.102 C 362.840 190.147,366.212 189.286,368.237 190.344 M383.969 203.206 C 383.183 206.047,378.926 208.162,373.140 208.583 C 367.186 209.017,360.967 209.084,360.601 208.719 C 360.324 208.443,360.710 205.556,361.089 205.062 C 361.141 204.995,361.942 205.323,362.869 205.792 C 366.152 207.453,372.741 206.259,372.741 204.004 C 372.741 202.966,373.458 203.046,374.276 204.175 C 377.736 208.952,383.875 204.154,384.065 196.523 C 384.112 194.634,384.156 195.016,384.226 197.926 C 384.286 200.417,384.189 202.409,383.969 203.206 " stroke="none" fill="#868788" fill-rule="evenodd"></path><path id="path3" d="M215.847 41.595 C 215.234 42.531,215.329 69.039,215.953 70.897 C 216.954 73.881,219.388 75.356,223.358 75.386 C 228.268 75.424,229.329 71.347,224.712 70.184 C 223.851 69.967,223.100 69.505,222.505 68.828 L 221.603 67.801 221.690 59.688 C 221.790 50.404,221.667 50.822,224.434 50.372 C 228.792 49.663,228.629 45.045,224.245 45.033 C 222.154 45.027,221.313 44.561,220.557 42.986 C 219.487 40.759,216.897 39.994,215.847 41.595 M219.026 44.448 C 220.017 45.877,221.784 46.815,223.484 46.815 C 224.845 46.815,225.481 47.202,225.481 48.028 C 225.481 48.631,224.894 48.889,223.517 48.889 C 220.409 48.889,220.172 49.642,220.137 59.649 C 220.101 69.897,220.275 70.477,223.760 71.748 C 225.190 72.270,225.481 72.493,225.481 73.071 C 225.481 74.541,221.953 74.437,219.720 72.900 C 217.035 71.053,217.029 71.015,217.089 57.630 C 217.159 42.266,217.221 41.845,219.026 44.448 M202.635 46.623 C 201.721 46.999,200.588 47.574,200.116 47.901 C 199.645 48.228,199.104 48.585,198.914 48.694 C 198.724 48.803,198.156 48.546,197.652 48.122 C 196.373 47.045,194.752 46.871,193.704 47.697 C 192.607 48.562,192.616 50.391,193.758 58.034 C 194.236 61.234,194.848 65.901,195.118 68.406 C 195.888 75.551,196.586 77.037,199.174 77.037 C 202.318 77.037,202.679 74.802,201.185 64.593 C 199.711 54.523,199.814 54.122,204.497 51.703 C 209.481 49.128,207.786 44.504,202.635 46.623 M246.370 47.830 C 246.207 47.895,245.274 48.179,244.296 48.461 C 235.254 51.065,231.193 66.234,237.646 73.295 C 241.725 77.758,254.671 81.122,256.894 78.296 C 258.566 76.171,257.418 74.507,253.883 73.935 C 246.491 72.738,243.786 71.535,241.852 68.586 C 239.056 64.322,242.434 63.291,251.407 65.668 C 259.971 67.937,261.778 66.821,261.778 59.259 C 261.778 54.205,261.127 52.776,257.745 50.400 C 255.700 48.964,247.926 47.207,246.370 47.830 M205.185 48.741 C 205.185 49.182,204.586 49.640,202.832 50.539 C 198.362 52.829,197.821 56.368,200.003 69.043 C 200.718 73.193,200.732 74.022,200.102 74.717 C 198.185 76.836,197.067 73.250,195.838 61.037 C 195.535 58.022,195.123 54.347,194.924 52.870 C 194.411 49.077,195.050 48.209,197.091 49.926 C 198.283 50.928,198.644 50.876,201.199 49.331 C 203.639 47.855,205.185 47.626,205.185 48.741 M253.213 50.102 C 258.157 51.056,261.065 55.601,260.161 60.960 C 259.458 65.126,258.573 65.649,254.176 64.489 C 252.653 64.087,250.474 63.677,249.333 63.578 C 248.193 63.479,246.268 63.134,245.057 62.810 C 241.469 61.852,240.368 62.135,239.690 64.190 C 238.966 66.382,239.705 68.942,241.698 71.148 C 243.438 73.073,247.567 74.736,252.266 75.405 C 255.504 75.865,256.200 76.220,255.259 76.933 C 254.622 77.417,254.666 77.419,248.444 76.599 C 238.953 75.349,235.197 70.230,236.699 60.589 C 238.066 51.808,243.656 48.258,253.213 50.102 M245.337 52.031 C 242.669 53.242,241.185 55.140,241.185 57.341 C 241.185 59.609,242.692 60.560,247.003 61.016 C 248.448 61.169,250.213 61.503,250.926 61.758 C 254.129 62.905,256.651 62.084,257.182 59.722 C 258.401 54.295,250.974 49.473,245.337 52.031 M168.761 53.025 C 163.628 54.143,158.514 57.175,158.523 59.095 C 158.538 62.123,159.925 62.409,164.516 60.327 C 170.942 57.413,174.521 57.278,175.876 59.898 C 176.824 61.732,175.809 62.668,171.596 63.845 C 162.372 66.423,158.698 72.279,162.224 78.782 C 165.485 84.795,172.529 85.316,180.998 80.172 C 182.458 79.285,183.020 79.111,184.424 79.111 C 187.923 79.111,188.806 77.724,187.690 73.982 C 181.460 53.094,179.321 50.726,168.761 53.025 M251.461 53.777 C 254.760 54.757,256.593 57.909,254.868 59.634 C 253.317 61.185,242.963 58.999,242.963 57.120 C 242.963 54.318,247.402 52.572,251.461 53.777 M178.001 55.292 C 179.447 56.135,181.203 58.545,181.645 60.296 C 182.033 61.836,183.771 67.384,185.223 71.723 C 186.770 76.344,186.600 77.037,183.913 77.037 C 182.812 77.037,181.866 77.468,178.667 79.423 C 170.763 84.255,163.161 81.879,162.436 74.351 C 162.062 70.471,167.478 65.933,173.728 64.888 C 177.329 64.286,178.691 62.988,178.240 60.585 C 177.431 56.270,171.425 55.382,164.407 58.539 C 160.898 60.118,159.091 59.546,161.584 57.645 C 165.272 54.831,174.853 53.458,178.001 55.292 M276.296 57.907 C 274.470 58.586,272.184 61.142,271.597 63.162 C 270.061 68.445,271.850 71.934,277.481 74.635 C 278.948 75.339,280.594 76.134,281.139 76.402 C 283.823 77.721,284.577 80.042,282.932 81.916 C 281.216 83.870,277.344 82.906,271.443 79.056 C 268.947 77.427,267.730 77.230,266.750 78.296 C 265.079 80.116,265.927 81.989,269.399 84.141 C 279.452 90.374,287.164 90.028,289.707 83.233 C 291.854 77.493,289.457 73.273,282.425 70.416 C 277.568 68.442,276.183 66.276,278.375 64.084 C 280.263 62.197,285.036 63.371,290.484 67.062 C 292.684 68.554,293.208 68.678,294.497 68.011 C 297.739 66.335,294.444 62.097,287.834 59.441 C 286.866 59.052,285.541 58.502,284.889 58.219 C 283.231 57.498,277.917 57.305,276.296 57.907 M281.778 59.091 C 286.987 60.420,294.343 64.561,293.836 65.880 C 293.536 66.664,292.333 66.452,290.699 65.328 C 286.708 62.582,284.295 61.503,281.877 61.379 C 274.301 60.993,273.311 68.976,280.618 71.522 C 287.032 73.757,289.608 76.910,288.623 81.315 C 287.442 86.590,282.730 88.374,276.780 85.798 C 275.862 85.401,274.778 84.985,274.370 84.875 C 271.414 84.076,267.733 81.177,268.589 80.321 C 269.007 79.903,269.449 80.061,273.266 81.989 C 280.250 85.518,284.689 85.067,285.500 80.747 C 286.043 77.851,284.941 76.580,279.556 73.890 C 273.954 71.091,272.588 69.602,272.599 66.311 C 272.617 61.298,276.978 57.868,281.778 59.091 M173.778 67.100 C 172.637 67.475,171.129 67.939,170.426 68.131 C 169.723 68.322,168.602 68.971,167.935 69.573 C 162.397 74.567,168.339 82.328,175.259 79.139 C 176.074 78.763,177.160 78.262,177.672 78.024 C 180.594 76.669,182.221 73.905,181.620 71.320 C 180.456 66.317,178.824 65.439,173.778 67.100 M136.435 67.808 C 132.738 68.929,127.920 71.905,124.433 75.224 C 121.568 77.950,121.792 78.672,128.889 89.630 C 129.522 90.607,130.669 92.474,131.438 93.778 C 132.622 95.787,134.112 98.194,138.497 105.185 C 141.767 110.398,142.493 110.951,144.751 109.952 C 147.276 108.835,147.242 107.318,144.592 102.926 C 142.083 98.767,142.123 98.574,145.885 96.767 C 149.296 95.129,152.140 92.605,153.704 89.825 L 154.815 87.852 154.815 84.296 C 154.815 73.309,145.590 65.033,136.435 67.808 M178.472 68.477 C 180.725 69.504,180.709 73.695,178.445 75.346 C 173.248 79.137,167.605 78.382,167.605 73.896 C 167.605 70.713,175.137 66.957,178.472 68.477 M143.940 69.491 C 147.973 70.689,153.531 79.163,153.552 84.148 C 153.570 88.647,149.032 94.237,144.339 95.497 C 142.748 95.924,141.080 97.367,141.017 98.370 C 140.917 99.982,141.106 100.481,142.978 103.569 C 145.180 107.201,145.370 108.242,143.852 108.373 C 142.429 108.497,141.164 106.870,136.537 98.963 C 135.249 96.763,133.193 93.430,131.967 91.556 C 126.648 83.424,124.259 79.000,124.554 77.827 C 125.008 76.017,133.675 70.166,137.093 69.362 C 138.904 68.936,142.285 69.000,143.940 69.491 M137.926 71.550 C 137.763 71.602,136.896 71.871,136.000 72.146 C 134.445 72.623,133.675 73.099,130.358 75.633 C 128.217 77.267,127.998 79.351,129.704 81.835 C 130.187 82.537,131.157 84.111,131.861 85.333 C 137.640 95.365,138.584 96.025,143.509 93.479 C 152.017 89.081,152.661 81.732,145.216 73.989 C 143.462 72.164,139.810 70.942,137.926 71.550 M141.801 73.490 C 143.236 74.036,144.903 75.596,146.274 77.677 C 150.464 84.037,148.631 90.161,141.901 92.287 C 138.528 93.352,138.663 93.459,134.253 86.222 C 133.409 84.837,132.181 82.842,131.525 81.789 C 129.460 78.480,129.678 77.750,133.453 75.330 C 136.826 73.169,139.440 72.593,141.801 73.490 M338.951 83.265 C 337.898 83.552,335.770 84.323,334.222 84.979 C 332.674 85.634,330.141 86.703,328.593 87.354 C 327.044 88.005,324.644 89.032,323.259 89.636 C 321.874 90.240,318.407 91.703,315.556 92.886 C 306.794 96.522,305.960 96.882,304.013 97.864 C 301.593 99.084,301.315 99.518,302.063 100.906 C 303.789 104.111,306.798 103.879,314.143 99.976 C 314.914 99.566,316.248 98.981,317.106 98.676 C 318.807 98.071,321.691 96.845,326.519 94.674 C 328.230 93.904,330.276 93.016,331.067 92.701 C 331.857 92.386,333.153 91.799,333.946 91.397 C 336.265 90.222,337.667 90.529,337.180 92.104 C 337.047 92.536,336.381 94.356,335.700 96.148 C 335.019 97.941,334.134 100.274,333.732 101.333 C 332.481 104.631,331.872 104.723,328.832 102.070 C 326.300 99.860,324.883 99.320,323.428 100.010 C 321.005 101.160,321.343 102.160,325.627 106.506 C 329.797 110.737,330.035 111.431,328.526 114.963 C 325.826 121.289,325.507 123.387,326.997 125.036 C 329.035 127.292,331.042 126.521,332.008 123.111 C 332.285 122.133,332.761 120.867,333.065 120.296 C 333.369 119.726,333.941 118.393,334.337 117.333 C 335.044 115.438,336.558 111.468,338.575 106.222 C 339.139 104.756,339.868 102.756,340.196 101.778 C 340.523 100.800,341.169 99.133,341.630 98.074 C 345.778 88.544,346.079 86.615,343.767 84.358 C 342.205 82.833,341.294 82.626,338.951 83.265 M342.213 85.212 C 343.656 86.516,343.934 87.665,343.248 89.491 C 342.975 90.219,342.376 91.859,341.916 93.135 C 341.456 94.411,340.804 96.042,340.466 96.761 C 340.128 97.480,339.851 98.236,339.849 98.441 C 339.847 98.647,339.500 99.548,339.076 100.444 C 337.906 102.922,336.574 106.439,333.658 114.748 C 333.156 116.178,332.496 117.844,332.191 118.452 C 331.886 119.059,331.399 120.281,331.109 121.167 C 330.434 123.230,329.432 124.301,328.595 123.853 C 327.752 123.402,327.819 121.684,328.774 119.199 C 332.138 110.451,332.154 110.596,327.293 105.777 C 324.359 102.868,323.730 101.923,324.438 101.485 C 324.890 101.206,325.925 101.865,327.767 103.606 C 332.630 108.203,333.609 107.296,338.548 93.630 C 340.409 88.480,338.573 87.363,332.889 90.187 C 331.422 90.916,329.622 91.713,328.889 91.958 C 327.229 92.514,324.175 93.751,322.222 94.659 C 321.407 95.038,320.407 95.443,320.000 95.559 C 319.593 95.676,318.526 96.141,317.630 96.593 C 308.806 101.042,305.656 102.147,304.579 101.173 C 303.243 99.964,304.592 98.901,309.630 97.193 C 310.526 96.889,312.793 95.950,314.667 95.106 C 316.541 94.262,318.807 93.270,319.704 92.902 C 320.600 92.534,322.067 91.896,322.963 91.484 C 324.938 90.575,327.115 89.692,330.074 88.597 C 332.851 87.570,336.062 86.209,337.789 85.327 C 338.987 84.715,340.231 84.241,340.814 84.174 C 340.936 84.160,341.565 84.627,342.213 85.212 M108.593 90.040 C 102.439 91.105,95.513 98.707,95.170 104.773 C 94.717 112.772,106.080 122.913,113.553 121.180 C 120.437 119.584,127.238 111.602,126.739 105.702 C 126.054 97.591,115.850 88.784,108.593 90.040 M113.279 92.153 C 122.608 95.034,127.504 105.612,122.746 112.603 C 117.163 120.804,108.987 121.748,102.210 114.974 C 95.164 107.931,94.945 102.945,101.393 96.401 C 105.908 91.819,108.824 90.777,113.279 92.153 M105.926 95.351 C 98.104 99.148,97.759 107.120,105.138 113.548 C 110.492 118.212,118.305 117.032,120.984 111.155 C 124.761 102.869,113.907 91.476,105.926 95.351 M113.137 97.199 C 118.326 99.494,121.798 106.571,119.586 110.345 C 115.799 116.807,108.561 116.437,103.429 109.518 C 98.238 102.520,105.198 93.687,113.137 97.199 M83.377 115.394 C 82.871 115.610,82.149 116.235,81.773 116.782 C 80.549 118.565,80.052 118.817,77.910 118.740 C 73.019 118.564,72.991 121.451,77.854 124.551 C 80.492 126.232,91.095 133.286,91.852 133.863 C 99.014 139.321,104.617 138.992,107.760 132.927 C 109.173 130.200,105.873 127.641,103.556 129.667 C 101.269 131.666,99.926 131.501,95.608 128.692 C 85.023 121.804,85.498 122.277,86.460 119.593 C 87.711 116.105,86.278 114.153,83.377 115.394 M354.398 116.754 C 353.679 117.080,350.212 119.256,346.694 121.590 C 343.175 123.924,338.963 126.696,337.333 127.750 C 332.198 131.069,331.545 131.907,332.564 133.867 C 333.785 136.213,335.446 136.530,337.979 134.899 C 338.684 134.445,341.227 132.812,343.630 131.269 C 346.034 129.727,348.561 128.039,349.246 127.519 C 352.271 125.223,354.815 125.341,358.102 127.928 C 359.949 129.382,360.315 129.510,361.599 129.156 C 364.877 128.251,364.062 125.554,359.548 122.367 L 358.074 121.327 357.926 119.360 C 357.693 116.266,356.848 115.642,354.398 116.754 M84.988 117.450 C 85.043 117.732,84.863 118.435,84.588 119.014 C 83.489 121.331,84.055 122.865,86.670 124.660 C 99.529 133.486,100.813 134.031,103.572 131.839 C 105.607 130.222,107.016 131.186,105.645 133.257 C 103.174 136.991,98.291 136.991,93.749 133.257 C 92.993 132.635,88.380 129.553,80.741 124.566 C 76.727 121.946,76.270 121.115,78.664 120.787 C 80.552 120.528,81.512 119.956,82.963 118.222 C 84.226 116.713,84.803 116.493,84.988 117.450 M356.148 120.082 C 356.148 121.971,356.568 122.637,358.439 123.713 C 360.398 124.838,361.185 125.615,361.185 126.422 C 361.185 127.494,360.191 127.291,357.827 125.733 C 353.447 122.847,352.274 123.229,340.367 131.418 C 335.582 134.709,334.222 134.990,334.222 132.689 C 334.222 131.979,334.615 131.604,337.111 129.935 C 338.700 128.872,340.867 127.401,341.926 126.666 C 343.712 125.427,345.883 124.024,352.094 120.096 C 355.405 118.002,356.148 118.000,356.148 120.082 M376.080 130.582 C 375.177 130.752,374.222 132.044,374.222 133.096 C 374.222 136.429,378.309 137.529,379.551 134.530 C 380.365 132.565,378.262 130.173,376.080 130.582 M377.481 133.316 C 377.481 134.063,376.973 134.365,376.449 133.930 C 375.910 133.482,376.204 132.741,376.921 132.741 C 377.278 132.741,377.481 132.949,377.481 133.316 M355.073 140.841 C 348.860 143.972,343.551 146.721,343.276 146.949 C 339.830 149.809,343.853 153.836,347.879 151.557 C 348.598 151.150,349.574 150.663,350.049 150.474 C 352.598 149.459,369.115 140.936,369.556 140.408 C 371.027 138.644,369.221 135.049,366.904 135.130 C 366.610 135.140,361.287 137.710,355.073 140.841 M69.626 136.963 C 67.702 140.117,68.773 141.441,75.407 144.109 C 76.385 144.502,78.652 145.444,80.444 146.203 C 82.237 146.961,84.382 147.844,85.210 148.164 C 88.044 149.260,88.859 151.227,88.306 155.634 C 88.051 157.669,87.911 157.973,86.533 159.509 C 84.340 161.953,80.704 161.778,75.267 158.967 C 74.729 158.689,73.608 158.222,72.774 157.928 C 71.941 157.635,69.726 156.718,67.852 155.891 C 63.410 153.930,62.117 154.021,61.138 156.364 C 60.233 158.530,61.080 159.954,64.000 161.172 C 64.896 161.546,67.030 162.443,68.741 163.166 C 70.452 163.889,72.525 164.723,73.348 165.019 C 74.170 165.315,75.399 165.840,76.079 166.187 C 85.044 170.760,92.689 166.085,93.328 155.639 C 93.601 151.184,93.795 150.665,95.274 150.425 C 97.208 150.112,97.960 147.944,96.667 146.416 C 96.207 145.873,91.139 143.539,89.185 142.970 C 88.778 142.851,87.778 142.439,86.963 142.054 C 86.148 141.668,84.681 141.029,83.704 140.634 C 81.026 139.550,77.972 138.248,76.129 137.405 C 72.362 135.682,70.485 135.554,69.626 136.963 M367.534 137.651 C 368.903 139.019,368.167 139.777,363.111 142.207 C 360.993 143.226,357.393 145.004,355.111 146.159 C 345.083 151.238,344.761 151.348,344.015 149.954 C 343.567 149.117,344.498 148.137,346.867 146.951 C 347.979 146.394,350.622 145.015,352.741 143.887 C 357.258 141.480,366.216 137.186,366.720 137.185 C 366.912 137.185,367.278 137.395,367.534 137.651 M73.630 138.353 C 74.444 138.659,76.178 139.305,77.481 139.788 C 78.785 140.271,80.985 141.165,82.370 141.774 C 83.756 142.384,85.822 143.269,86.963 143.742 C 88.104 144.216,89.570 144.862,90.222 145.180 C 90.874 145.497,92.141 146.073,93.037 146.460 C 95.549 147.545,96.096 148.766,94.236 149.138 C 92.198 149.546,91.828 150.299,91.741 154.222 C 91.623 159.596,89.492 164.239,86.411 165.834 C 84.963 166.584,80.436 166.457,78.797 165.621 C 77.073 164.741,73.244 163.090,70.222 161.923 C 62.318 158.871,61.535 158.316,63.112 156.888 C 63.859 156.212,65.860 156.587,68.710 157.934 C 69.734 158.419,70.737 158.815,70.939 158.815 C 71.142 158.815,71.963 159.157,72.765 159.576 C 75.658 161.088,80.472 163.003,81.778 163.161 C 87.208 163.821,91.449 157.235,89.644 150.946 C 88.889 148.316,88.535 147.944,85.388 146.475 C 82.687 145.214,81.652 144.787,76.874 142.963 C 72.187 141.172,70.519 140.216,70.519 139.322 C 70.519 137.708,71.280 137.471,73.630 138.353 M251.073 142.745 C 250.513 143.110,248.808 145.444,241.432 155.945 C 239.694 158.420,237.645 161.332,236.880 162.417 C 234.619 165.622,234.703 166.353,238.695 178.272 C 239.250 179.929,239.704 181.508,239.704 181.780 C 239.704 182.053,240.094 183.430,240.572 184.841 C 241.049 186.253,241.528 187.874,241.635 188.444 C 241.851 189.585,242.969 193.412,244.752 199.111 C 245.389 201.148,246.051 203.460,246.222 204.248 C 246.393 205.036,246.844 206.436,247.225 207.359 C 247.606 208.282,248.078 209.879,248.274 210.908 C 248.470 211.937,248.871 213.340,249.165 214.027 C 249.460 214.714,249.925 216.272,250.200 217.490 C 250.677 219.604,251.396 222.075,253.417 228.557 C 254.813 233.032,253.934 233.724,245.476 234.806 C 243.361 235.077,240.496 235.548,239.111 235.853 C 237.726 236.159,235.059 236.609,233.185 236.853 C 231.311 237.098,228.511 237.564,226.963 237.888 C 225.415 238.213,223.148 238.635,221.926 238.827 C 219.169 239.259,216.290 239.792,213.117 240.459 C 208.468 241.435,208.782 240.293,215.739 230.929 C 217.327 228.793,218.868 226.659,219.165 226.187 C 219.777 225.215,222.355 221.619,225.160 217.828 C 226.205 216.415,228.374 213.393,229.980 211.111 C 231.586 208.830,233.827 205.696,234.960 204.148 C 239.150 198.420,238.897 196.726,233.980 197.596 C 232.809 197.804,230.228 198.217,228.244 198.514 C 226.259 198.812,223.126 199.393,221.281 199.804 C 219.436 200.216,216.353 200.755,214.430 201.002 C 209.896 201.584,208.269 202.309,206.644 204.469 C 204.201 207.715,199.784 213.803,199.246 214.667 C 198.941 215.156,197.411 217.289,195.846 219.407 C 194.281 221.526,192.421 224.126,191.714 225.185 C 191.006 226.244,189.681 228.111,188.769 229.333 C 187.857 230.555,185.882 233.288,184.380 235.407 C 182.878 237.526,181.278 239.781,180.824 240.419 C 180.371 241.058,179.161 242.704,178.135 244.079 C 177.109 245.453,175.582 247.598,174.742 248.844 C 173.901 250.091,171.932 252.844,170.366 254.963 C 168.801 257.081,166.461 260.342,165.167 262.209 C 163.873 264.076,161.999 266.476,161.002 267.542 C 153.121 275.972,154.827 278.067,167.407 275.405 C 169.281 275.008,172.081 274.541,173.630 274.366 C 175.178 274.191,177.310 273.848,178.368 273.604 C 179.427 273.360,182.160 272.896,184.443 272.574 C 186.725 272.252,189.741 271.724,191.144 271.402 C 192.547 271.080,195.481 270.547,197.663 270.218 C 199.844 269.888,202.563 269.359,203.704 269.041 C 204.844 268.724,207.306 268.265,209.174 268.023 C 211.043 267.781,214.176 267.247,216.137 266.837 C 218.099 266.428,221.104 265.908,222.815 265.683 C 226.876 265.150,233.057 263.943,238.963 262.531 C 241.570 261.908,244.928 261.241,246.425 261.048 C 247.922 260.855,249.855 260.500,250.721 260.259 C 251.588 260.017,254.363 259.501,256.889 259.111 C 259.415 258.721,262.881 258.135,264.593 257.809 C 266.304 257.482,269.437 256.937,271.556 256.597 C 287.173 254.090,287.073 254.169,284.430 246.478 C 283.906 244.952,283.239 242.770,282.950 241.630 C 282.660 240.489,282.095 238.556,281.696 237.333 C 281.296 236.111,280.742 234.244,280.464 233.185 C 279.476 229.415,278.291 225.269,276.906 220.741 C 276.134 218.215,275.132 214.815,274.679 213.185 C 274.226 211.556,273.633 209.715,273.362 209.095 C 273.090 208.475,272.739 207.275,272.581 206.428 C 272.423 205.582,271.886 203.489,271.388 201.778 C 269.961 196.884,268.185 190.922,267.240 187.852 C 266.763 186.304,266.121 184.104,265.814 182.963 C 265.507 181.822,264.983 180.089,264.650 179.111 C 264.317 178.133,263.855 176.533,263.624 175.556 C 263.009 172.948,260.549 164.505,258.661 158.519 C 258.172 156.970,257.563 154.843,257.307 153.791 C 257.051 152.739,256.646 151.500,256.407 151.038 C 256.168 150.576,255.718 149.009,255.407 147.556 C 254.479 143.213,252.954 141.521,251.073 142.745 M253.279 145.035 C 253.598 145.441,254.150 146.875,254.505 148.220 C 254.860 149.566,255.529 151.867,255.991 153.333 C 256.824 155.974,257.317 157.663,258.931 163.407 C 260.753 169.890,261.401 172.088,262.087 174.104 C 262.481 175.261,263.002 177.061,263.245 178.104 C 263.489 179.147,264.089 181.133,264.579 182.519 C 265.069 183.904,265.472 185.256,265.476 185.524 C 265.479 185.792,265.955 187.592,266.534 189.524 C 267.113 191.456,268.054 194.637,268.624 196.593 C 270.290 202.305,271.686 207.024,272.744 210.519 C 273.813 214.047,274.930 217.949,276.012 221.926 C 276.825 224.920,277.967 228.777,279.125 232.444 C 279.588 233.911,280.182 235.978,280.446 237.037 C 280.710 238.096,281.236 239.763,281.614 240.741 C 281.992 241.719,282.390 243.052,282.497 243.704 C 282.604 244.356,283.108 246.197,283.616 247.796 C 285.208 252.805,284.837 253.269,278.486 254.210 C 276.304 254.534,273.292 255.068,271.792 255.399 C 270.293 255.729,267.559 256.209,265.718 256.465 C 263.877 256.721,261.304 257.179,260.000 257.482 C 258.696 257.785,256.030 258.254,254.074 258.523 C 252.119 258.793,249.185 259.325,247.556 259.705 C 245.926 260.086,243.793 260.479,242.815 260.580 C 241.837 260.680,238.504 261.236,235.407 261.815 C 232.311 262.394,227.378 263.317,224.444 263.865 C 221.511 264.413,218.044 265.013,216.741 265.198 C 215.437 265.383,212.904 265.844,211.111 266.224 C 209.319 266.603,206.585 267.068,205.037 267.258 C 203.489 267.448,201.222 267.852,200.000 268.155 C 198.778 268.459,196.178 268.924,194.222 269.188 C 192.267 269.453,189.067 269.992,187.111 270.387 C 185.156 270.781,182.179 271.307,180.497 271.556 C 178.815 271.804,176.215 272.269,174.719 272.590 C 173.224 272.911,170.600 273.378,168.889 273.628 C 167.178 273.878,164.416 274.354,162.752 274.687 C 157.270 275.783,157.218 274.785,162.393 267.852 C 163.913 265.815,167.255 261.215,169.818 257.630 C 172.381 254.044,175.354 249.911,176.423 248.444 C 177.493 246.978,179.002 244.874,179.777 243.770 C 181.884 240.766,188.974 230.879,190.236 229.185 C 191.579 227.380,200.202 215.325,204.224 209.630 C 209.066 202.771,209.479 202.538,218.963 201.301 C 220.837 201.056,223.770 200.539,225.481 200.151 C 232.322 198.600,236.148 198.528,236.148 199.949 C 236.148 200.443,233.532 204.346,229.879 209.300 C 229.171 210.259,227.488 212.593,226.138 214.485 C 224.788 216.378,223.159 218.659,222.519 219.556 C 215.642 229.180,213.635 231.971,211.786 234.480 C 206.129 242.151,206.725 242.890,216.971 240.903 C 219.452 240.422,222.587 239.881,223.938 239.702 C 225.289 239.523,227.617 239.109,229.112 238.783 C 230.606 238.457,233.567 237.924,235.692 237.598 C 237.817 237.273,240.756 236.753,242.222 236.444 C 243.689 236.135,246.356 235.671,248.148 235.413 C 254.229 234.539,255.111 234.052,255.111 231.566 C 255.111 230.069,254.771 228.770,252.006 219.704 C 251.460 217.911,250.523 214.778,249.924 212.741 C 249.325 210.704,248.386 207.570,247.836 205.778 C 247.286 203.985,246.750 202.119,246.645 201.630 C 246.540 201.141,246.078 199.474,245.619 197.926 C 245.159 196.378,244.233 193.244,243.560 190.963 C 242.887 188.681,241.940 185.548,241.455 184.000 C 240.970 182.452,240.321 180.252,240.013 179.111 C 239.452 177.032,238.516 173.800,237.166 169.290 C 235.984 165.336,235.868 165.645,241.481 157.778 C 243.806 154.519,246.391 150.874,247.225 149.678 C 251.073 144.160,252.020 143.434,253.279 145.035 M363.407 153.344 C 351.496 155.898,347.047 167.533,353.649 178.867 C 356.162 183.181,360.737 181.237,358.481 176.815 C 355.575 171.119,355.832 165.523,359.136 162.553 C 365.984 156.396,374.282 159.290,376.300 168.539 C 377.247 172.877,377.738 173.630,379.621 173.630 C 382.306 173.630,382.689 172.122,381.361 166.770 C 378.723 156.133,372.413 151.414,363.407 153.344 M372.281 155.683 C 375.231 157.127,376.141 158.310,378.674 164.000 C 379.592 166.063,380.467 170.447,380.045 170.869 C 379.504 171.409,378.746 170.223,377.625 167.084 C 375.137 160.122,372.248 157.755,366.499 157.970 C 357.988 158.288,352.398 165.834,355.286 173.108 C 357.240 178.030,357.346 178.485,356.607 178.768 C 355.525 179.184,352.786 172.748,352.150 168.296 C 350.900 159.548,363.739 151.504,372.281 155.683 M80.169 176.006 C 79.365 176.319,77.698 176.800,76.465 177.073 C 75.231 177.346,73.489 177.821,72.593 178.128 C 71.696 178.435,70.096 178.888,69.037 179.134 C 67.176 179.565,63.347 180.691,57.481 182.532 C 55.933 183.018,53.767 183.612,52.668 183.851 C 51.569 184.091,50.236 184.467,49.705 184.688 C 49.175 184.908,47.769 185.326,46.581 185.616 C 41.263 186.915,40.828 192.159,45.789 195.184 C 48.510 196.843,52.147 198.901,52.889 199.201 C 53.215 199.333,54.148 199.882,54.963 200.422 C 56.635 201.530,60.385 203.732,65.630 206.685 C 69.203 208.696,70.648 209.527,75.464 212.337 C 78.812 214.291,79.129 214.379,80.094 213.619 C 81.791 212.284,81.614 208.951,79.786 207.823 C 78.296 206.904,71.167 202.835,68.444 201.350 C 66.733 200.417,64.333 199.069,63.111 198.356 C 61.889 197.642,59.489 196.297,57.778 195.367 C 49.853 191.059,49.870 190.948,58.834 188.561 C 66.184 186.603,66.412 186.687,65.777 191.117 C 65.245 194.831,65.899 196.483,68.074 196.918 C 70.017 197.307,70.837 195.623,71.567 189.737 C 72.181 184.783,72.032 184.968,76.594 183.511 C 78.712 182.835,81.111 182.127,81.926 181.938 C 84.237 181.402,85.622 179.652,85.628 177.259 C 85.632 175.458,83.074 174.871,80.169 176.006 M82.791 177.365 C 83.351 177.580,83.407 178.674,82.889 179.291 C 82.141 180.183,81.507 180.460,78.532 181.196 C 71.343 182.975,70.987 183.350,69.613 190.606 C 68.675 195.563,68.000 195.483,68.000 190.415 C 68.000 185.490,66.790 184.596,61.916 185.922 C 61.025 186.165,58.510 186.830,56.326 187.401 C 50.949 188.807,48.152 190.667,49.279 192.086 C 49.822 192.769,55.646 196.240,60.444 198.741 C 61.993 199.548,64.193 200.787,65.333 201.493 C 68.255 203.304,71.000 204.845,75.111 206.983 C 79.314 209.169,80.323 210.300,79.308 211.687 C 78.873 212.282,73.876 209.919,69.731 207.158 C 68.728 206.490,66.194 204.986,64.101 203.817 C 57.552 200.158,56.501 199.555,54.370 198.227 C 52.618 197.135,50.364 195.849,45.877 193.380 C 44.564 192.658,44.052 191.602,44.279 190.087 C 44.588 188.026,45.102 187.619,48.444 186.798 C 50.074 186.398,52.007 185.819,52.741 185.512 C 53.474 185.205,54.807 184.804,55.704 184.620 C 56.600 184.437,58.533 183.892,60.000 183.409 C 61.467 182.926,63.467 182.343,64.444 182.113 C 68.018 181.271,73.096 179.913,75.407 179.180 C 77.694 178.454,81.717 177.278,82.124 177.216 C 82.233 177.199,82.533 177.266,82.791 177.365 M362.963 185.607 C 356.756 186.981,354.615 194.641,357.849 203.909 C 358.625 206.132,358.632 206.215,358.137 207.252 C 356.299 211.106,358.230 211.970,366.500 210.993 C 369.525 210.635,373.587 210.216,375.526 210.060 C 384.229 209.361,387.258 205.822,386.885 196.784 C 386.599 189.865,384.956 185.943,382.423 186.134 C 380.259 186.296,379.905 187.209,380.582 190.894 C 382.089 199.105,381.246 202.963,377.943 202.963 C 376.499 202.963,376.138 202.243,375.739 198.578 C 374.528 187.459,370.961 183.836,362.963 185.607 M367.638 186.977 C 371.516 187.808,373.378 190.938,373.918 197.532 C 374.487 204.476,374.749 205.041,377.394 205.032 C 382.156 205.016,384.371 199.479,382.519 192.218 C 381.762 189.247,381.808 188.334,382.724 188.204 C 384.494 187.952,385.766 196.615,384.743 201.961 C 383.734 207.237,380.869 208.613,369.630 209.218 C 358.869 209.798,359.623 209.984,359.888 206.815 C 360.074 204.579,360.041 204.404,359.079 202.465 C 358.036 200.362,357.517 195.016,358.069 192.072 C 358.462 189.978,361.507 187.409,364.119 186.967 C 366.072 186.636,366.052 186.636,367.638 186.977 M363.201 190.531 C 360.523 191.945,359.685 194.577,360.393 199.346 C 361.159 204.506,362.663 206.084,366.794 206.058 C 371.381 206.030,372.682 204.507,372.340 199.569 C 371.798 191.755,367.999 187.997,363.201 190.531 M368.074 192.312 C 370.655 194.440,371.245 202.887,368.900 204.142 C 364.945 206.259,361.157 201.584,361.880 195.481 C 362.292 192.002,365.627 190.296,368.074 192.312 " stroke="none" fill="#9b9c9f" fill-rule="evenodd"></path><path id="path4" d="M217.959 46.096 C 217.503 47.283,217.738 69.308,218.216 70.293 C 219.145 72.203,222.536 73.999,223.839 73.270 C 224.247 73.041,224.195 72.939,223.493 72.590 C 219.631 70.666,219.424 69.999,219.517 59.726 C 219.605 49.885,220.059 48.332,222.861 48.284 C 223.369 48.276,223.095 48.039,221.839 47.403 C 220.895 46.925,219.832 46.330,219.477 46.082 C 218.652 45.504,218.184 45.509,217.959 46.096 M195.376 50.495 C 195.287 50.726,195.424 52.330,195.681 54.059 C 195.938 55.788,196.152 58.032,196.157 59.046 C 196.168 61.262,196.526 64.209,197.317 68.593 C 197.640 70.385,197.982 72.350,198.076 72.959 C 198.277 74.253,199.133 74.910,199.711 74.214 C 200.097 73.748,200.067 73.325,199.304 68.444 C 198.446 62.961,198.101 55.768,198.604 53.858 L 199.052 52.161 197.599 51.117 C 196.005 49.972,195.618 49.864,195.376 50.495 M242.074 52.131 C 239.841 53.690,239.292 54.361,238.423 56.593 C 235.930 62.999,236.492 68.826,239.978 72.700 C 241.402 74.283,246.265 76.160,247.734 75.694 C 248.561 75.432,247.440 74.745,244.795 73.894 C 239.444 72.174,236.844 64.209,240.821 61.722 C 241.266 61.444,241.685 61.176,241.752 61.127 C 241.820 61.078,241.507 60.311,241.057 59.421 L 240.239 57.804 240.894 55.837 C 241.527 53.936,242.963 51.862,243.660 51.842 C 243.847 51.837,244.259 51.637,244.575 51.398 C 245.956 50.353,243.654 51.028,242.074 52.131 M252.444 51.065 C 252.444 51.120,253.046 51.476,253.782 51.854 C 257.831 53.937,259.142 60.578,255.951 62.850 C 254.950 63.562,255.181 64.134,256.596 64.445 C 261.143 65.444,260.748 54.960,256.130 52.092 C 254.688 51.196,252.444 50.571,252.444 51.065 M173.486 55.414 C 173.589 55.581,174.454 56.112,175.410 56.594 C 178.501 58.154,179.603 60.541,178.443 63.163 C 177.760 64.708,177.206 64.979,173.846 65.412 C 172.281 65.614,171.215 65.933,170.516 66.410 L 169.488 67.111 170.691 67.203 C 171.479 67.264,172.597 67.019,173.935 66.494 C 178.112 64.856,180.183 65.629,181.624 69.364 C 182.803 72.422,182.804 73.929,181.630 75.407 C 180.775 76.483,180.456 77.248,181.003 76.910 C 181.147 76.821,182.168 76.620,183.272 76.464 C 186.099 76.063,186.191 75.750,184.580 72.000 C 184.125 70.941,183.663 69.541,183.554 68.889 C 183.444 68.237,182.978 66.504,182.518 65.037 C 182.058 63.570,181.464 61.606,181.198 60.672 C 180.652 58.758,179.275 56.778,177.796 55.781 C 176.742 55.071,173.081 54.759,173.486 55.414 M168.955 55.618 C 168.584 55.689,167.917 55.936,167.474 56.168 L 166.667 56.589 167.464 56.591 C 167.903 56.592,168.344 56.459,168.444 56.296 C 168.545 56.133,169.094 56.000,169.665 56.000 C 170.281 56.000,170.627 55.880,170.519 55.704 C 170.332 55.401,170.138 55.390,168.955 55.618 M163.037 57.478 C 162.507 57.801,162.074 58.203,162.074 58.372 C 162.074 58.785,163.507 58.420,164.444 57.769 C 164.852 57.486,165.452 57.188,165.778 57.106 C 166.104 57.024,165.839 56.943,165.185 56.924 C 164.474 56.904,163.615 57.126,163.037 57.478 M277.451 60.023 C 271.860 62.781,271.366 68.810,276.515 71.442 C 277.125 71.754,278.445 72.540,279.450 73.190 C 280.455 73.839,281.464 74.370,281.692 74.370 C 282.671 74.370,285.578 76.725,285.935 77.806 C 287.097 81.326,285.198 84.198,281.314 84.795 C 278.346 85.251,278.301 85.273,279.125 85.851 C 280.382 86.731,283.800 86.558,285.125 85.547 C 291.009 81.061,288.270 74.016,279.852 71.983 C 276.136 71.086,274.176 66.854,275.811 63.259 C 276.572 61.588,277.051 61.294,280.444 60.413 C 281.760 60.071,281.843 60.005,281.185 59.821 C 279.920 59.468,278.410 59.550,277.451 60.023 M246.716 61.827 C 246.278 62.266,246.583 62.492,247.874 62.685 C 249.570 62.940,250.250 62.445,248.867 61.963 C 247.786 61.586,247.007 61.537,246.716 61.827 M291.255 64.737 C 292.234 65.460,292.696 65.535,292.308 64.909 C 292.201 64.735,291.921 64.593,291.686 64.593 C 291.451 64.593,291.259 64.459,291.259 64.296 C 291.259 64.133,291.033 64.000,290.757 64.000 C 290.419 64.000,290.581 64.240,291.255 64.737 M165.764 69.302 C 161.817 71.734,162.290 78.152,166.567 80.199 C 169.544 81.624,170.349 81.777,170.963 81.037 C 171.276 80.660,171.208 80.593,170.521 80.593 C 166.545 80.593,164.043 74.930,166.083 70.550 C 166.953 68.681,166.929 68.584,165.764 69.302 M140.044 69.872 C 138.836 69.971,139.254 70.783,140.525 70.805 C 141.533 70.823,144.748 72.523,145.655 73.517 C 152.992 81.558,152.935 88.092,145.481 93.242 C 145.074 93.523,144.565 93.926,144.349 94.136 C 143.725 94.746,145.080 94.628,146.028 93.989 C 146.461 93.698,147.170 93.282,147.603 93.065 C 149.840 91.942,152.889 86.900,152.889 84.322 C 152.889 82.950,151.483 78.936,150.090 76.332 C 147.416 71.329,144.570 69.500,140.044 69.872 M136.222 70.426 C 135.937 70.501,135.704 70.686,135.704 70.837 C 135.704 70.988,135.937 71.109,136.222 71.107 C 137.074 71.100,138.074 70.764,138.074 70.484 C 138.074 70.215,137.142 70.186,136.222 70.426 M130.434 73.326 C 128.661 74.339,125.613 77.045,125.291 77.891 C 124.976 78.716,125.538 80.020,127.797 83.704 C 128.596 85.007,129.570 86.674,129.961 87.407 C 130.352 88.141,131.477 89.874,132.461 91.259 C 133.446 92.644,134.910 94.978,135.716 96.444 C 138.372 101.278,142.273 107.107,143.174 107.589 C 144.440 108.267,144.415 107.375,143.103 105.132 C 140.324 100.382,139.964 99.229,140.638 97.244 C 141.136 95.778,140.936 95.421,139.615 95.412 C 137.377 95.397,135.178 92.691,130.823 84.593 C 130.210 83.452,129.454 82.240,129.143 81.899 C 127.149 79.713,127.597 76.977,130.281 74.937 C 133.211 72.711,133.308 71.682,130.434 73.326 M271.633 82.822 C 273.160 83.850,274.966 84.470,274.959 83.963 C 274.954 83.614,273.007 82.370,272.466 82.370 C 272.229 82.370,271.953 82.237,271.852 82.074 C 271.751 81.911,271.312 81.778,270.875 81.778 C 270.158 81.778,270.231 81.878,271.633 82.822 M339.259 85.253 C 339.015 85.345,338.281 85.782,337.630 86.223 C 336.978 86.664,335.911 87.194,335.259 87.401 C 334.607 87.607,333.607 88.016,333.037 88.310 C 332.467 88.603,331.515 88.909,330.923 88.990 C 330.330 89.071,329.114 89.471,328.221 89.880 C 327.328 90.288,326.019 90.778,325.311 90.969 C 324.604 91.159,323.487 91.678,322.828 92.121 C 322.169 92.565,320.994 93.164,320.217 93.453 C 319.440 93.743,318.640 94.134,318.439 94.323 C 317.932 94.800,316.759 95.326,315.704 95.549 C 315.215 95.653,314.215 96.044,313.481 96.419 C 312.748 96.794,311.415 97.273,310.519 97.484 C 309.622 97.695,308.620 98.042,308.291 98.256 C 307.963 98.469,307.102 98.853,306.378 99.109 C 304.904 99.628,304.474 100.093,304.942 100.657 C 305.302 101.091,306.705 101.167,307.126 100.775 C 307.281 100.631,308.274 100.211,309.333 99.841 C 310.393 99.471,311.726 98.865,312.296 98.493 C 312.867 98.121,313.933 97.584,314.667 97.300 C 315.400 97.016,316.464 96.407,317.030 95.947 C 317.597 95.487,318.353 95.111,318.710 95.111 C 319.066 95.111,320.003 94.827,320.790 94.480 C 322.321 93.805,325.660 92.552,329.039 91.385 C 330.181 90.991,331.476 90.334,331.915 89.927 C 332.355 89.519,332.783 89.185,332.867 89.185 C 332.951 89.185,333.748 88.852,334.639 88.444 C 339.883 86.046,341.452 89.901,338.016 96.741 C 337.606 97.556,337.186 98.669,337.082 99.215 C 336.812 100.627,334.418 105.523,333.672 106.191 C 333.144 106.663,332.761 106.722,331.263 106.566 C 329.180 106.348,329.143 106.434,330.539 108.262 C 332.226 110.472,331.981 113.290,329.639 118.631 C 328.818 120.501,328.516 122.085,328.871 122.648 C 329.275 123.286,329.901 122.633,330.491 120.959 C 330.763 120.187,331.376 118.756,331.852 117.778 C 332.329 116.800,332.981 115.200,333.300 114.222 C 335.433 107.698,337.633 101.680,338.219 100.771 C 338.597 100.184,339.122 98.940,339.386 98.006 C 339.649 97.072,340.125 95.867,340.443 95.328 C 340.761 94.789,341.363 93.353,341.781 92.137 C 342.200 90.921,342.688 89.507,342.866 88.994 C 343.718 86.554,341.605 84.362,339.259 85.253 M109.481 92.357 C 106.965 92.943,104.296 94.149,104.296 94.700 C 104.296 95.246,104.375 95.231,106.074 94.370 C 111.278 91.733,119.611 97.043,121.926 104.471 C 122.796 107.264,122.775 107.512,121.280 111.954 C 120.519 114.215,122.140 113.141,123.292 110.621 C 125.618 105.534,123.904 100.473,118.337 95.986 C 114.661 93.023,111.747 91.829,109.481 92.357 M99.322 99.517 C 98.016 100.324,97.231 106.374,98.120 108.788 C 98.924 110.973,103.989 116.475,106.258 117.629 C 109.939 119.500,114.683 119.253,117.331 117.053 C 118.648 115.960,118.488 115.846,116.296 116.319 C 112.055 117.234,108.651 116.731,105.881 114.778 C 100.425 110.932,97.888 105.861,99.339 101.703 C 100.065 99.624,100.061 99.060,99.322 99.517 M352.491 120.593 C 349.859 121.997,345.426 124.905,340.294 128.593 C 339.273 129.326,337.614 130.432,336.608 131.050 C 334.723 132.207,334.222 133.334,335.486 133.575 C 335.949 133.663,342.298 129.645,343.852 128.281 C 344.178 127.995,345.711 127.076,347.259 126.239 C 348.807 125.402,350.426 124.441,350.856 124.103 C 351.453 123.634,352.107 123.480,353.619 123.448 L 355.600 123.407 355.413 122.074 C 355.023 119.303,354.964 119.273,352.491 120.593 M81.678 120.442 C 81.215 120.683,80.315 121.037,79.678 121.228 C 78.334 121.630,78.212 122.125,79.269 122.875 C 79.682 123.168,80.582 123.839,81.269 124.367 C 81.956 124.896,82.610 125.329,82.721 125.330 C 83.108 125.336,91.185 130.596,93.158 132.127 C 97.778 135.712,101.257 136.525,103.673 134.583 C 105.915 132.780,105.966 130.958,103.732 132.458 C 101.879 133.703,99.811 133.684,97.518 132.402 C 93.500 130.157,91.298 128.773,89.778 127.538 C 88.881 126.810,87.567 125.849,86.857 125.403 C 84.492 123.917,83.814 123.173,83.423 121.635 C 82.998 119.959,82.827 119.843,81.678 120.442 M357.792 124.819 C 357.973 125.291,359.670 126.059,359.939 125.790 C 360.208 125.520,358.798 124.459,358.157 124.451 C 357.867 124.447,357.710 124.606,357.792 124.819 M364.444 138.717 C 363.874 139.070,362.741 139.612,361.926 139.921 C 360.108 140.613,356.039 142.643,354.993 143.381 C 354.569 143.680,352.822 144.619,351.111 145.469 C 349.400 146.319,347.554 147.236,347.008 147.507 C 344.898 148.556,344.047 149.926,345.505 149.926 C 346.340 149.926,349.549 148.573,350.633 147.765 C 351.512 147.109,354.509 145.593,358.370 143.851 C 362.741 141.879,366.864 139.720,367.085 139.287 C 367.748 137.994,366.167 137.652,364.444 138.717 M71.165 139.294 C 71.228 139.712,71.655 140.075,72.444 140.380 C 73.096 140.632,73.968 141.072,74.383 141.358 C 74.797 141.644,76.063 142.173,77.197 142.535 C 78.331 142.896,79.393 143.294,79.556 143.421 C 79.719 143.547,80.751 143.940,81.851 144.295 C 85.052 145.327,88.616 147.306,89.185 148.367 C 89.454 148.869,89.910 149.639,90.197 150.077 L 90.720 150.875 91.508 150.138 C 91.942 149.733,92.730 149.182,93.259 148.915 C 94.609 148.234,94.270 147.358,92.444 146.811 C 92.037 146.689,90.807 146.140,89.711 145.591 C 88.615 145.042,87.554 144.593,87.352 144.593 C 87.151 144.593,85.914 144.075,84.604 143.443 C 80.537 141.480,77.525 140.205,76.444 139.989 C 75.874 139.876,74.882 139.531,74.241 139.224 C 72.577 138.429,71.039 138.464,71.165 139.294 M363.407 155.691 C 360.258 156.733,358.087 157.662,357.171 158.361 C 354.462 160.428,352.344 165.977,353.154 168.889 C 353.316 169.470,353.445 169.150,353.752 167.407 C 354.769 161.639,360.365 157.481,367.111 157.482 C 371.237 157.483,371.969 157.775,374.671 160.504 C 376.728 162.581,377.255 162.543,376.300 160.385 C 374.474 156.256,368.392 154.042,363.407 155.691 M63.529 157.443 C 63.212 158.270,63.608 158.731,65.089 159.257 C 65.875 159.536,67.385 160.138,68.444 160.595 C 69.504 161.052,70.704 161.522,71.111 161.639 C 72.366 162.000,77.414 164.189,78.675 164.919 C 82.487 167.124,87.331 165.756,89.170 161.956 C 90.320 159.582,89.934 159.418,87.912 161.422 C 85.245 164.065,81.560 164.521,77.911 162.659 C 77.217 162.305,76.116 161.827,75.464 161.597 C 74.811 161.367,73.665 160.802,72.916 160.343 C 72.168 159.883,71.156 159.409,70.667 159.291 C 70.178 159.172,68.940 158.669,67.916 158.174 C 65.597 157.053,63.794 156.753,63.529 157.443 M78.963 178.805 C 77.985 179.005,76.385 179.505,75.407 179.915 C 74.430 180.326,72.853 180.749,71.904 180.855 C 70.955 180.961,69.442 181.306,68.543 181.622 C 67.644 181.938,65.778 182.408,64.397 182.667 C 63.015 182.926,61.159 183.470,60.271 183.876 C 59.383 184.282,57.892 184.752,56.958 184.920 C 56.024 185.089,54.393 185.612,53.333 186.084 C 52.274 186.555,50.219 187.138,48.766 187.379 C 44.193 188.138,43.007 191.618,46.766 193.247 C 50.396 194.821,52.574 195.955,53.235 196.615 C 53.633 197.013,54.449 197.544,55.049 197.795 C 55.649 198.045,56.409 198.495,56.737 198.793 C 57.979 199.924,65.737 204.148,66.571 204.148 C 66.675 204.148,67.439 204.656,68.269 205.277 C 69.099 205.898,70.311 206.797,70.963 207.277 C 73.090 208.840,78.296 211.270,78.736 210.905 C 79.579 210.206,76.694 208.053,72.865 206.523 C 72.308 206.301,71.519 205.899,71.111 205.630 C 70.704 205.361,69.904 204.962,69.333 204.745 C 68.763 204.527,67.763 203.967,67.111 203.501 C 64.056 201.317,62.764 200.529,60.179 199.276 C 58.648 198.533,57.240 197.926,57.050 197.926 C 56.860 197.926,56.413 197.655,56.058 197.324 C 55.702 196.992,54.789 196.454,54.028 196.128 C 51.853 195.196,48.296 192.389,48.296 191.605 C 48.296 189.763,51.207 187.690,54.632 187.092 C 56.019 186.850,57.994 186.381,59.021 186.050 C 63.730 184.532,67.518 184.748,68.420 186.585 C 69.018 187.803,69.294 187.702,69.846 186.063 C 70.768 183.328,73.426 181.476,77.438 180.774 C 79.785 180.363,82.074 179.380,82.074 178.782 C 82.074 178.297,81.420 178.302,78.963 178.805 M363.920 187.534 C 361.486 188.151,358.702 190.953,358.411 193.079 C 358.180 194.764,358.463 199.279,358.866 200.349 C 359.407 201.783,360.112 201.699,359.878 200.228 C 359.108 195.390,359.578 192.776,361.555 190.913 C 364.500 188.139,370.126 189.252,371.961 192.972 C 372.359 193.780,372.432 193.826,372.438 193.270 C 372.452 191.876,370.328 188.752,368.840 187.977 C 367.835 187.454,365.178 187.215,363.920 187.534 M382.619 189.498 C 382.524 189.745,382.655 190.510,382.909 191.196 C 383.164 191.883,383.428 192.778,383.497 193.185 C 383.566 193.593,383.641 192.907,383.663 191.661 C 383.703 189.435,383.113 188.212,382.619 189.498 M384.065 196.523 C 383.875 204.154,377.736 208.952,374.276 204.175 C 373.458 203.046,372.741 202.966,372.741 204.004 C 372.741 206.259,366.152 207.453,362.869 205.792 C 361.942 205.323,361.141 204.995,361.089 205.062 C 360.710 205.556,360.324 208.443,360.601 208.719 C 360.807 208.924,362.411 209.006,365.127 208.949 C 381.642 208.602,384.445 206.985,384.226 197.926 C 384.156 195.016,384.112 194.634,384.065 196.523 " stroke="none" fill="#847c84" fill-rule="evenodd"></path></g></svg>